<svg width="3503" height="1650" xmlns="http://www.w3.org/2000/svg" xmlns:xlink="http://www.w3.org/1999/xlink" xml:space="preserve" overflow="hidden"><defs><clipPath id="clip0"><rect x="421" y="452" width="3503" height="1650"/></clipPath><clipPath id="clip1"><rect x="476" y="452" width="1651" height="1651"/></clipPath><clipPath id="clip2"><rect x="476" y="452" width="1651" height="1651"/></clipPath><clipPath id="clip3"><rect x="476" y="452" width="1651" height="1651"/></clipPath><clipPath id="clip4"><rect x="702" y="506" width="1385" height="1386"/></clipPath><clipPath id="clip5"><rect x="476" y="452" width="1651" height="1651"/></clipPath><clipPath id="clip6"><rect x="2273" y="452" width="1651" height="1651"/></clipPath><clipPath id="clip7"><rect x="2273" y="452" width="1651" height="1651"/></clipPath><clipPath id="clip8"><rect x="2273" y="452" width="1651" height="1651"/></clipPath><clipPath id="clip9"><rect x="2500" y="506" width="1385" height="1386"/></clipPath></defs><g clip-path="url(#clip0)" transform="translate(-421 -452)"><rect x="476" y="452" width="3448" height="1650" fill="#FFFFFF"/><g clip-path="url(#clip1)"><g clip-path="url(#clip2)"><g clip-path="url(#clip3)"><path d="M476 452 2126 452 2126 2102 476 2102Z" fill="#FFFFFF"/><g><path d="M476 487.292 2126 487.292 2126 2066.71 476 2066.71Z" stroke="#FFFFFF" stroke-width="4.90417" stroke-linecap="round" stroke-linejoin="round" stroke-miterlimit="10" fill="#FFFFFF"/></g><g clip-path="url(#clip4)"><path d="M702.6 506.771 2087 506.771 2087 1891.17 702.6 1891.17Z" stroke="#7F7F7F" stroke-width="4.90417" stroke-linecap="round" stroke-linejoin="round" stroke-miterlimit="10" fill="#FFFFFF"/><path d="M702.6 1828.24 2087.04 1828.24" stroke="#E5E5E5" stroke-width="4.90417" stroke-linejoin="round" stroke-miterlimit="10" fill="none"/><path d="M702.6 1618.5 2087.04 1618.5" stroke="#E5E5E5" stroke-width="4.90417" stroke-linejoin="round" stroke-miterlimit="10" fill="none"/><path d="M702.6 1408.73 2087.04 1408.73" stroke="#E5E5E5" stroke-width="4.90417" stroke-linejoin="round" stroke-miterlimit="10" fill="none"/><path d="M702.6 1198.99 2087.04 1198.99" stroke="#E5E5E5" stroke-width="4.90417" stroke-linejoin="round" stroke-miterlimit="10" fill="none"/><path d="M702.6 989.213 2087.04 989.213" stroke="#E5E5E5" stroke-width="4.90417" stroke-linejoin="round" stroke-miterlimit="10" fill="none"/><path d="M702.6 779.479 2087.04 779.479" stroke="#E5E5E5" stroke-width="4.90417" stroke-linejoin="round" stroke-miterlimit="10" fill="none"/><path d="M702.6 569.7 2087.04 569.7" stroke="#E5E5E5" stroke-width="4.90417" stroke-linejoin="round" stroke-miterlimit="10" fill="none"/><path d="M765.529 1891.17 765.529 506.771" stroke="#E5E5E5" stroke-width="4.90417" stroke-linejoin="round" stroke-miterlimit="10" fill="none"/><path d="M975.308 1891.17 975.308 506.771" stroke="#E5E5E5" stroke-width="4.90417" stroke-linejoin="round" stroke-miterlimit="10" fill="none"/><path d="M1185.04 1891.17 1185.04 506.771" stroke="#E5E5E5" stroke-width="4.90417" stroke-linejoin="round" stroke-miterlimit="10" fill="none"/><path d="M1394.82 1891.17 1394.82 506.771" stroke="#E5E5E5" stroke-width="4.90417" stroke-linejoin="round" stroke-miterlimit="10" fill="none"/><path d="M1604.6 1891.17 1604.6 506.771" stroke="#E5E5E5" stroke-width="4.90417" stroke-linejoin="round" stroke-miterlimit="10" fill="none"/><path d="M1814.33 1891.17 1814.33 506.771" stroke="#E5E5E5" stroke-width="4.90417" stroke-linejoin="round" stroke-miterlimit="10" fill="none"/><path d="M2024.11 1891.17 2024.11 506.771" stroke="#E5E5E5" stroke-width="4.90417" stroke-linejoin="round" stroke-miterlimit="10" fill="none"/><text font-family="Arial,Arial_MSFontService,sans-serif" font-weight="400" font-size="17" transform="matrix(4.58333 0 0 4.58333 1626.42 1695)">R </text><text font-family="Arial,Arial_MSFontService,sans-serif" font-weight="400" font-size="17" transform="matrix(4.58333 0 0 4.58333 1699.75 1695)">=  </text><text font-family="Arial,Arial_MSFontService,sans-serif" font-weight="400" font-size="17" transform="matrix(4.58333 0 0 4.58333 1791.42 1695)">0</text><text font-family="Arial,Arial_MSFontService,sans-serif" font-weight="400" font-size="17" transform="matrix(4.58333 0 0 4.58333 1832.67 1695)">.</text><text font-family="Arial,Arial_MSFontService,sans-serif" font-weight="400" font-size="17" transform="matrix(4.58333 0 0 4.58333 1855.58 1695)">893 </text><text font-family="Arial,Arial_MSFontService,sans-serif" font-weight="400" font-size="17" transform="matrix(4.58333 0 0 4.58333 1640.17 1808)">p </text><text font-family="Arial,Arial_MSFontService,sans-serif" font-weight="400" font-size="17" transform="matrix(4.58333 0 0 4.58333 1704.33 1808)">=  </text><text font-family="Arial,Arial_MSFontService,sans-serif" font-weight="400" font-size="17" transform="matrix(4.58333 0 0 4.58333 1796 1808)">1</text><text font-family="Arial,Arial_MSFontService,sans-serif" font-weight="400" font-size="17" transform="matrix(4.58333 0 0 4.58333 1837.25 1808)">e</text><text font-family="Arial,Arial_MSFontService,sans-serif" font-weight="400" font-size="17" transform="matrix(4.58333 0 0 4.58333 1878.5 1808)">-</text><text font-family="Arial,Arial_MSFontService,sans-serif" font-weight="400" font-size="17" transform="matrix(4.58333 0 0 4.58333 1906 1808)">07</text><path d="M1399.04 1327 1442.26 1327" stroke="#000000" stroke-width="4.90417" stroke-linejoin="round" stroke-miterlimit="10" fill="none"/><path d="M1541.49 1001.91 1631.69 1001.91" stroke="#000000" stroke-width="4.90417" stroke-linejoin="round" stroke-miterlimit="10" fill="none"/><path d="M1392.48 1035.96 1451.01 1035.96" stroke="#000000" stroke-width="4.90417" stroke-linejoin="round" stroke-miterlimit="10" fill="none"/><path d="M1138.06 1518.54 1189.76 1518.54" stroke="#000000" stroke-width="4.90417" stroke-linejoin="round" stroke-miterlimit="10" fill="none"/><path d="M1405.32 1126.8 1481.72 1126.8" stroke="#000000" stroke-width="4.90417" stroke-linejoin="round" stroke-miterlimit="10" fill="none"/><path d="M1320.07 1179.79 1369.02 1179.79" stroke="#000000" stroke-width="4.90417" stroke-linejoin="round" stroke-miterlimit="10" fill="none"/><path d="M1505.88 1046.55 1574.17 1046.55" stroke="#000000" stroke-width="4.90417" stroke-linejoin="round" stroke-miterlimit="10" fill="none"/><path d="M1347.8 1332.55 1404.72 1332.55" stroke="#000000" stroke-width="4.90417" stroke-linejoin="round" stroke-miterlimit="10" fill="none"/><path d="M992.771 1743.17 1046.99 1743.17" stroke="#000000" stroke-width="4.90417" stroke-linejoin="round" stroke-miterlimit="10" fill="none"/><path d="M1275.29 1249.78 1320.94 1249.78" stroke="#000000" stroke-width="4.90417" stroke-linejoin="round" stroke-miterlimit="10" fill="none"/><path d="M1733.99 994.713 1812.36 994.713" stroke="#000000" stroke-width="4.90417" stroke-linejoin="round" stroke-miterlimit="10" fill="none"/><path d="M1331.62 1443.33 1393.13 1443.33" stroke="#000000" stroke-width="4.90417" stroke-linejoin="round" stroke-miterlimit="10" fill="none"/><path d="M1207.27 1346.53 1255.4 1346.53" stroke="#000000" stroke-width="4.90417" stroke-linejoin="round" stroke-miterlimit="10" fill="none"/><path d="M1170.74 1499.25 1225.83 1499.25" stroke="#000000" stroke-width="4.90417" stroke-linejoin="round" stroke-miterlimit="10" fill="none"/><path d="M1699.34 682.267 1746.32 682.267" stroke="#000000" stroke-width="4.90417" stroke-linejoin="round" stroke-miterlimit="10" fill="none"/><path d="M1432.4 1162.55 1470.58 1162.55" stroke="#000000" stroke-width="4.90417" stroke-linejoin="round" stroke-miterlimit="10" fill="none"/><path d="M1466.96 968.267 1513.99 968.267" stroke="#000000" stroke-width="4.90417" stroke-linejoin="round" stroke-miterlimit="10" fill="none"/><path d="M1510.09 1025.56 1556.98 1025.56" stroke="#000000" stroke-width="4.90417" stroke-linejoin="round" stroke-miterlimit="10" fill="none"/><path d="M1286.88 1169.84 1409.53 1169.84" stroke="#000000" stroke-width="4.90417" stroke-linejoin="round" stroke-miterlimit="10" fill="none"/><path d="M1375.53 1223.6 1472.83 1223.6" stroke="#000000" stroke-width="4.90417" stroke-linejoin="round" stroke-miterlimit="10" fill="none"/><path d="M1433.69 1327C1433.69 1334.19 1427.86 1340.02 1420.67 1340.02 1413.48 1340.02 1407.65 1334.19 1407.65 1327 1407.65 1319.82 1413.48 1313.99 1420.67 1313.99 1427.86 1313.99 1433.69 1319.82 1433.69 1327Z" stroke="#000000" stroke-width="6.50833" stroke-linecap="round" stroke-linejoin="round" stroke-miterlimit="10"/><path d="M1599.6 1001.91C1599.6 1009.1 1593.78 1014.93 1586.59 1014.93 1579.4 1014.93 1573.57 1009.1 1573.57 1001.91 1573.57 994.719 1579.4 988.892 1586.59 988.892 1593.78 988.892 1599.6 994.719 1599.6 1001.91Z" stroke="#000000" stroke-width="6.50833" stroke-linecap="round" stroke-linejoin="round" stroke-miterlimit="10"/><path d="M1434.74 1035.96C1434.74 1043.15 1428.91 1048.98 1421.73 1048.98 1414.54 1048.98 1408.71 1043.15 1408.71 1035.96 1408.71 1028.77 1414.54 1022.95 1421.73 1022.95 1428.91 1022.95 1434.74 1028.77 1434.74 1035.96Z" stroke="#000000" stroke-width="6.50833" stroke-linecap="round" stroke-linejoin="round" stroke-miterlimit="10"/><path d="M1176.93 1518.54C1176.93 1525.73 1171.1 1531.56 1163.91 1531.56 1156.72 1531.56 1150.9 1525.73 1150.9 1518.54 1150.9 1511.35 1156.72 1505.53 1163.91 1505.53 1171.1 1505.53 1176.93 1511.35 1176.93 1518.54Z" stroke="#000000" stroke-width="6.50833" stroke-linecap="round" stroke-linejoin="round" stroke-miterlimit="10"/><path d="M1456.56 1126.8C1456.56 1133.99 1450.73 1139.82 1443.54 1139.82 1436.35 1139.82 1430.53 1133.99 1430.53 1126.8 1430.53 1119.62 1436.35 1113.79 1443.54 1113.79 1450.73 1113.79 1456.56 1119.62 1456.56 1126.8Z" stroke="#000000" stroke-width="6.50833" stroke-linecap="round" stroke-linejoin="round" stroke-miterlimit="10"/><path d="M1357.56 1179.79C1357.56 1186.98 1351.73 1192.8 1344.54 1192.8 1337.35 1192.8 1331.53 1186.98 1331.53 1179.79 1331.53 1172.6 1337.35 1166.77 1344.54 1166.77 1351.73 1166.77 1357.56 1172.6 1357.56 1179.79Z" stroke="#000000" stroke-width="6.50833" stroke-linecap="round" stroke-linejoin="round" stroke-miterlimit="10"/><path d="M1553.04 1046.55C1553.04 1053.74 1547.21 1059.57 1540.02 1059.57 1532.83 1059.57 1527 1053.74 1527 1046.55 1527 1039.36 1532.83 1033.53 1540.02 1033.53 1547.21 1033.53 1553.04 1039.36 1553.04 1046.55Z" stroke="#000000" stroke-width="6.50833" stroke-linecap="round" stroke-linejoin="round" stroke-miterlimit="10"/><path d="M1389.28 1332.55C1389.28 1339.74 1383.45 1345.57 1376.26 1345.57 1369.07 1345.57 1363.24 1339.74 1363.24 1332.55 1363.24 1325.36 1369.07 1319.53 1376.26 1319.53 1383.45 1319.53 1389.28 1325.36 1389.28 1332.55Z" stroke="#000000" stroke-width="6.50833" stroke-linecap="round" stroke-linejoin="round" stroke-miterlimit="10"/><path d="M1032.92 1743.17C1032.92 1750.36 1027.09 1756.19 1019.9 1756.19 1012.72 1756.19 1006.89 1750.36 1006.89 1743.17 1006.89 1735.98 1012.72 1730.15 1019.9 1730.15 1027.09 1730.15 1032.92 1735.98 1032.92 1743.17Z" stroke="#000000" stroke-width="6.50833" stroke-linecap="round" stroke-linejoin="round" stroke-miterlimit="10"/><path d="M1311.13 1249.78C1311.13 1256.96 1305.3 1262.79 1298.11 1262.79 1290.92 1262.79 1285.1 1256.96 1285.1 1249.78 1285.1 1242.59 1290.92 1236.76 1298.11 1236.76 1305.3 1236.76 1311.13 1242.59 1311.13 1249.78Z" stroke="#000000" stroke-width="6.50833" stroke-linecap="round" stroke-linejoin="round" stroke-miterlimit="10"/><path d="M1786.19 994.713C1786.19 1001.9 1780.36 1007.73 1773.18 1007.73 1765.99 1007.73 1760.16 1001.9 1760.16 994.713 1760.16 987.524 1765.99 981.696 1773.18 981.696 1780.36 981.696 1786.19 987.524 1786.19 994.713Z" stroke="#000000" stroke-width="6.50833" stroke-linecap="round" stroke-linejoin="round" stroke-miterlimit="10"/><path d="M1375.39 1443.33C1375.39 1450.52 1369.56 1456.35 1362.37 1456.35 1355.18 1456.35 1349.35 1450.52 1349.35 1443.33 1349.35 1436.14 1355.18 1430.31 1362.37 1430.31 1369.56 1430.31 1375.39 1436.14 1375.39 1443.33Z" stroke="#000000" stroke-width="6.50833" stroke-linecap="round" stroke-linejoin="round" stroke-miterlimit="10"/><path d="M1244.35 1346.53C1244.35 1353.72 1238.52 1359.55 1231.33 1359.55 1224.14 1359.55 1218.32 1353.72 1218.32 1346.53 1218.32 1339.34 1224.14 1333.51 1231.33 1333.51 1238.52 1333.51 1244.35 1339.34 1244.35 1346.53Z" stroke="#000000" stroke-width="6.50833" stroke-linecap="round" stroke-linejoin="round" stroke-miterlimit="10"/><path d="M1211.3 1499.25C1211.3 1506.43 1205.48 1512.26 1198.29 1512.26 1191.1 1512.26 1185.27 1506.43 1185.27 1499.25 1185.27 1492.06 1191.1 1486.23 1198.29 1486.23 1205.48 1486.23 1211.3 1492.06 1211.3 1499.25Z" stroke="#000000" stroke-width="6.50833" stroke-linecap="round" stroke-linejoin="round" stroke-miterlimit="10"/><path d="M1735.87 682.267C1735.87 689.456 1730.04 695.283 1722.85 695.283 1715.66 695.283 1709.83 689.456 1709.83 682.267 1709.83 675.078 1715.66 669.25 1722.85 669.25 1730.04 669.25 1735.87 675.078 1735.87 682.267Z" stroke="#000000" stroke-width="6.50833" stroke-linecap="round" stroke-linejoin="round" stroke-miterlimit="10"/><path d="M1464.53 1162.55C1464.53 1169.74 1458.71 1175.57 1451.52 1175.57 1444.33 1175.57 1438.5 1169.74 1438.5 1162.55 1438.5 1155.37 1444.33 1149.54 1451.52 1149.54 1458.71 1149.54 1464.53 1155.37 1464.53 1162.55Z" stroke="#000000" stroke-width="6.50833" stroke-linecap="round" stroke-linejoin="round" stroke-miterlimit="10"/><path d="M1503.49 968.267C1503.49 975.456 1497.66 981.283 1490.48 981.283 1483.29 981.283 1477.46 975.456 1477.46 968.267 1477.46 961.078 1483.29 955.25 1490.48 955.25 1497.66 955.25 1503.49 961.078 1503.49 968.267Z" stroke="#000000" stroke-width="6.50833" stroke-linecap="round" stroke-linejoin="round" stroke-miterlimit="10"/><path d="M1546.58 1025.56C1546.58 1032.75 1540.75 1038.58 1533.56 1038.58 1526.37 1038.58 1520.54 1032.75 1520.54 1025.56 1520.54 1018.37 1526.37 1012.54 1533.56 1012.54 1540.75 1012.54 1546.58 1018.37 1546.58 1025.56Z" stroke="#000000" stroke-width="6.50833" stroke-linecap="round" stroke-linejoin="round" stroke-miterlimit="10"/><path d="M1361.23 1169.84C1361.23 1177.03 1355.4 1182.86 1348.21 1182.86 1341.02 1182.86 1335.19 1177.03 1335.19 1169.84 1335.19 1162.65 1341.02 1156.83 1348.21 1156.83 1355.4 1156.83 1361.23 1162.65 1361.23 1169.84Z" stroke="#000000" stroke-width="6.50833" stroke-linecap="round" stroke-linejoin="round" stroke-miterlimit="10"/><path d="M1437.17 1223.6C1437.17 1230.79 1431.34 1236.62 1424.15 1236.62 1416.97 1236.62 1411.14 1230.79 1411.14 1223.6 1411.14 1216.42 1416.97 1210.59 1424.15 1210.59 1431.34 1210.59 1437.17 1216.42 1437.17 1223.6Z" stroke="#000000" stroke-width="6.50833" stroke-linecap="round" stroke-linejoin="round" stroke-miterlimit="10"/><path d="M1420.67 1349.83 1420.67 1304.18" stroke="#000000" stroke-width="4.90417" stroke-linejoin="round" stroke-miterlimit="10" fill="none"/><path d="M1586.59 1054.89 1586.59 948.925" stroke="#000000" stroke-width="4.90417" stroke-linejoin="round" stroke-miterlimit="10" fill="none"/><path d="M1421.73 1067.77 1421.73 1004.2" stroke="#000000" stroke-width="4.90417" stroke-linejoin="round" stroke-miterlimit="10" fill="none"/><path d="M1163.91 1547.51 1163.91 1489.58" stroke="#000000" stroke-width="4.90417" stroke-linejoin="round" stroke-miterlimit="10" fill="none"/><path d="M1443.54 1172 1443.54 1081.57" stroke="#000000" stroke-width="4.90417" stroke-linejoin="round" stroke-miterlimit="10" fill="none"/><path d="M1344.54 1209.35 1344.54 1150.18" stroke="#000000" stroke-width="4.90417" stroke-linejoin="round" stroke-miterlimit="10" fill="none"/><path d="M1540.02 1085.46 1540.02 1007.64" stroke="#000000" stroke-width="4.90417" stroke-linejoin="round" stroke-miterlimit="10" fill="none"/><path d="M1376.26 1360.88 1376.26 1304.27" stroke="#000000" stroke-width="4.90417" stroke-linejoin="round" stroke-miterlimit="10" fill="none"/><path d="M1019.9 1773.88 1019.9 1712.42" stroke="#000000" stroke-width="4.90417" stroke-linejoin="round" stroke-miterlimit="10" fill="none"/><path d="M1298.11 1277.14 1298.11 1222.37" stroke="#000000" stroke-width="4.90417" stroke-linejoin="round" stroke-miterlimit="10" fill="none"/><path d="M1773.18 1035.78 1773.18 953.692" stroke="#000000" stroke-width="4.90417" stroke-linejoin="round" stroke-miterlimit="10" fill="none"/><path d="M1362.37 1474.82 1362.37 1411.84" stroke="#000000" stroke-width="4.90417" stroke-linejoin="round" stroke-miterlimit="10" fill="none"/><path d="M1231.33 1375.08 1231.33 1317.98" stroke="#000000" stroke-width="4.90417" stroke-linejoin="round" stroke-miterlimit="10" fill="none"/><path d="M1198.29 1532.06 1198.29 1466.38" stroke="#000000" stroke-width="4.90417" stroke-linejoin="round" stroke-miterlimit="10" fill="none"/><path d="M1722.85 707.658 1722.85 656.875" stroke="#000000" stroke-width="4.90417" stroke-linejoin="round" stroke-miterlimit="10" fill="none"/><path d="M1451.52 1183.18 1451.52 1141.97" stroke="#000000" stroke-width="4.90417" stroke-linejoin="round" stroke-miterlimit="10" fill="none"/><path d="M1490.48 992.283 1490.48 944.25" stroke="#000000" stroke-width="4.90417" stroke-linejoin="round" stroke-miterlimit="10" fill="none"/><path d="M1533.56 1049.21 1533.56 1001.91" stroke="#000000" stroke-width="4.90417" stroke-linejoin="round" stroke-miterlimit="10" fill="none"/><path d="M1348.21 1257.25 1348.21 1082.44" stroke="#000000" stroke-width="4.90417" stroke-linejoin="round" stroke-miterlimit="10" fill="none"/><path d="M1424.15 1280.39 1424.15 1166.77" stroke="#000000" stroke-width="4.90417" stroke-linejoin="round" stroke-miterlimit="10" fill="none"/><path d="M1433.69 1327C1433.69 1334.19 1427.86 1340.02 1420.67 1340.02 1413.48 1340.02 1407.65 1334.19 1407.65 1327 1407.65 1319.82 1413.48 1313.99 1420.67 1313.99 1427.86 1313.99 1433.69 1319.82 1433.69 1327Z" stroke="#000000" stroke-width="6.50833" stroke-linecap="round" stroke-linejoin="round" stroke-miterlimit="10"/><path d="M1599.6 1001.91C1599.6 1009.1 1593.78 1014.93 1586.59 1014.93 1579.4 1014.93 1573.57 1009.1 1573.57 1001.91 1573.57 994.719 1579.4 988.892 1586.59 988.892 1593.78 988.892 1599.6 994.719 1599.6 1001.91Z" stroke="#000000" stroke-width="6.50833" stroke-linecap="round" stroke-linejoin="round" stroke-miterlimit="10"/><path d="M1434.74 1035.96C1434.74 1043.15 1428.91 1048.98 1421.73 1048.98 1414.54 1048.98 1408.71 1043.15 1408.71 1035.96 1408.71 1028.77 1414.54 1022.95 1421.73 1022.95 1428.91 1022.95 1434.74 1028.77 1434.74 1035.96Z" stroke="#000000" stroke-width="6.50833" stroke-linecap="round" stroke-linejoin="round" stroke-miterlimit="10"/><path d="M1176.93 1518.54C1176.93 1525.73 1171.1 1531.56 1163.91 1531.56 1156.72 1531.56 1150.9 1525.73 1150.9 1518.54 1150.9 1511.35 1156.72 1505.53 1163.91 1505.53 1171.1 1505.53 1176.93 1511.35 1176.93 1518.54Z" stroke="#000000" stroke-width="6.50833" stroke-linecap="round" stroke-linejoin="round" stroke-miterlimit="10"/><path d="M1456.56 1126.8C1456.56 1133.99 1450.73 1139.82 1443.54 1139.82 1436.35 1139.82 1430.53 1133.99 1430.53 1126.8 1430.53 1119.62 1436.35 1113.79 1443.54 1113.79 1450.73 1113.79 1456.56 1119.62 1456.56 1126.8Z" stroke="#000000" stroke-width="6.50833" stroke-linecap="round" stroke-linejoin="round" stroke-miterlimit="10"/><path d="M1357.56 1179.79C1357.56 1186.98 1351.73 1192.8 1344.54 1192.8 1337.35 1192.8 1331.53 1186.98 1331.53 1179.79 1331.53 1172.6 1337.35 1166.77 1344.54 1166.77 1351.73 1166.77 1357.56 1172.6 1357.56 1179.79Z" stroke="#000000" stroke-width="6.50833" stroke-linecap="round" stroke-linejoin="round" stroke-miterlimit="10"/><path d="M1553.04 1046.55C1553.04 1053.74 1547.21 1059.57 1540.02 1059.57 1532.83 1059.57 1527 1053.74 1527 1046.55 1527 1039.36 1532.83 1033.53 1540.02 1033.53 1547.21 1033.53 1553.04 1039.36 1553.04 1046.55Z" stroke="#000000" stroke-width="6.50833" stroke-linecap="round" stroke-linejoin="round" stroke-miterlimit="10"/><path d="M1389.28 1332.55C1389.28 1339.74 1383.45 1345.57 1376.26 1345.57 1369.07 1345.57 1363.24 1339.74 1363.24 1332.55 1363.24 1325.36 1369.07 1319.53 1376.26 1319.53 1383.45 1319.53 1389.28 1325.36 1389.28 1332.55Z" stroke="#000000" stroke-width="6.50833" stroke-linecap="round" stroke-linejoin="round" stroke-miterlimit="10"/><path d="M1032.92 1743.17C1032.92 1750.36 1027.09 1756.19 1019.9 1756.19 1012.72 1756.19 1006.89 1750.36 1006.89 1743.17 1006.89 1735.98 1012.72 1730.15 1019.9 1730.15 1027.09 1730.15 1032.92 1735.98 1032.92 1743.17Z" stroke="#000000" stroke-width="6.50833" stroke-linecap="round" stroke-linejoin="round" stroke-miterlimit="10"/><path d="M1311.13 1249.78C1311.13 1256.96 1305.3 1262.79 1298.11 1262.79 1290.92 1262.79 1285.1 1256.96 1285.1 1249.78 1285.1 1242.59 1290.92 1236.76 1298.11 1236.76 1305.3 1236.76 1311.13 1242.59 1311.13 1249.78Z" stroke="#000000" stroke-width="6.50833" stroke-linecap="round" stroke-linejoin="round" stroke-miterlimit="10"/><path d="M1786.19 994.713C1786.19 1001.9 1780.36 1007.73 1773.18 1007.73 1765.99 1007.73 1760.16 1001.9 1760.16 994.713 1760.16 987.524 1765.99 981.696 1773.18 981.696 1780.36 981.696 1786.19 987.524 1786.19 994.713Z" stroke="#000000" stroke-width="6.50833" stroke-linecap="round" stroke-linejoin="round" stroke-miterlimit="10"/><path d="M1375.39 1443.33C1375.39 1450.52 1369.56 1456.35 1362.37 1456.35 1355.18 1456.35 1349.35 1450.52 1349.35 1443.33 1349.35 1436.14 1355.18 1430.31 1362.37 1430.31 1369.56 1430.31 1375.39 1436.14 1375.39 1443.33Z" stroke="#000000" stroke-width="6.50833" stroke-linecap="round" stroke-linejoin="round" stroke-miterlimit="10"/><path d="M1244.35 1346.53C1244.35 1353.72 1238.52 1359.55 1231.33 1359.55 1224.14 1359.55 1218.32 1353.72 1218.32 1346.53 1218.32 1339.34 1224.14 1333.51 1231.33 1333.51 1238.52 1333.51 1244.35 1339.34 1244.35 1346.53Z" stroke="#000000" stroke-width="6.50833" stroke-linecap="round" stroke-linejoin="round" stroke-miterlimit="10"/><path d="M1211.3 1499.25C1211.3 1506.43 1205.48 1512.26 1198.29 1512.26 1191.1 1512.26 1185.27 1506.43 1185.27 1499.25 1185.27 1492.06 1191.1 1486.23 1198.29 1486.23 1205.48 1486.23 1211.3 1492.06 1211.3 1499.25Z" stroke="#000000" stroke-width="6.50833" stroke-linecap="round" stroke-linejoin="round" stroke-miterlimit="10"/><path d="M1735.87 682.267C1735.87 689.456 1730.04 695.283 1722.85 695.283 1715.66 695.283 1709.83 689.456 1709.83 682.267 1709.83 675.078 1715.66 669.25 1722.85 669.25 1730.04 669.25 1735.87 675.078 1735.87 682.267Z" stroke="#000000" stroke-width="6.50833" stroke-linecap="round" stroke-linejoin="round" stroke-miterlimit="10"/><path d="M1464.53 1162.55C1464.53 1169.74 1458.71 1175.57 1451.52 1175.57 1444.33 1175.57 1438.5 1169.74 1438.5 1162.55 1438.5 1155.37 1444.33 1149.54 1451.52 1149.54 1458.71 1149.54 1464.53 1155.37 1464.53 1162.55Z" stroke="#000000" stroke-width="6.50833" stroke-linecap="round" stroke-linejoin="round" stroke-miterlimit="10"/><path d="M1503.49 968.267C1503.49 975.456 1497.66 981.283 1490.48 981.283 1483.29 981.283 1477.46 975.456 1477.46 968.267 1477.46 961.078 1483.29 955.25 1490.48 955.25 1497.66 955.25 1503.49 961.078 1503.49 968.267Z" stroke="#000000" stroke-width="6.50833" stroke-linecap="round" stroke-linejoin="round" stroke-miterlimit="10"/><path d="M1546.58 1025.56C1546.58 1032.75 1540.75 1038.58 1533.56 1038.58 1526.37 1038.58 1520.54 1032.75 1520.54 1025.56 1520.54 1018.37 1526.37 1012.54 1533.56 1012.54 1540.75 1012.54 1546.58 1018.37 1546.58 1025.56Z" stroke="#000000" stroke-width="6.50833" stroke-linecap="round" stroke-linejoin="round" stroke-miterlimit="10"/><path d="M1361.23 1169.84C1361.23 1177.03 1355.4 1182.86 1348.21 1182.86 1341.02 1182.86 1335.19 1177.03 1335.19 1169.84 1335.19 1162.65 1341.02 1156.83 1348.21 1156.83 1355.4 1156.83 1361.23 1162.65 1361.23 1169.84Z" stroke="#000000" stroke-width="6.50833" stroke-linecap="round" stroke-linejoin="round" stroke-miterlimit="10"/><path d="M1437.17 1223.6C1437.17 1230.79 1431.34 1236.62 1424.15 1236.62 1416.97 1236.62 1411.14 1230.79 1411.14 1223.6 1411.14 1216.42 1416.97 1210.59 1424.15 1210.59 1431.34 1210.59 1437.17 1216.42 1437.17 1223.6Z" stroke="#000000" stroke-width="6.50833" stroke-linecap="round" stroke-linejoin="round" stroke-miterlimit="10"/><path d="M1436.99 1327C1436.99 1336.02 1429.68 1343.32 1420.67 1343.32 1411.66 1343.32 1404.35 1336.02 1404.35 1327 1404.35 1317.99 1411.66 1310.69 1420.67 1310.69 1429.68 1310.69 1436.99 1317.99 1436.99 1327Z" stroke="#000000" stroke-width="3.25417" stroke-linecap="round" stroke-linejoin="round" stroke-miterlimit="10"/><path d="M1602.9 1001.91C1602.9 1010.92 1595.6 1018.23 1586.59 1018.23 1577.58 1018.23 1570.27 1010.92 1570.27 1001.91 1570.27 992.897 1577.58 985.592 1586.59 985.592 1595.6 985.592 1602.9 992.897 1602.9 1001.91Z" stroke="#000000" stroke-width="3.25417" stroke-linecap="round" stroke-linejoin="round" stroke-miterlimit="10"/><path d="M1438.04 1035.96C1438.04 1044.97 1430.74 1052.28 1421.73 1052.28 1412.71 1052.28 1405.41 1044.97 1405.41 1035.96 1405.41 1026.95 1412.71 1019.65 1421.73 1019.65 1430.74 1019.65 1438.04 1026.95 1438.04 1035.96Z" stroke="#000000" stroke-width="3.25417" stroke-linecap="round" stroke-linejoin="round" stroke-miterlimit="10"/><path d="M1180.23 1518.54C1180.23 1527.55 1172.92 1534.86 1163.91 1534.86 1154.9 1534.86 1147.6 1527.55 1147.6 1518.54 1147.6 1509.53 1154.9 1502.22 1163.91 1502.22 1172.92 1502.22 1180.23 1509.53 1180.23 1518.54Z" stroke="#000000" stroke-width="3.25417" stroke-linecap="round" stroke-linejoin="round" stroke-miterlimit="10"/><path d="M1459.86 1126.8C1459.86 1135.82 1452.55 1143.12 1443.54 1143.12 1434.53 1143.12 1427.23 1135.82 1427.23 1126.8 1427.23 1117.79 1434.53 1110.49 1443.54 1110.49 1452.55 1110.49 1459.86 1117.79 1459.86 1126.8Z" stroke="#000000" stroke-width="3.25417" stroke-linecap="round" stroke-linejoin="round" stroke-miterlimit="10"/><path d="M1360.86 1179.79C1360.86 1188.8 1353.55 1196.1 1344.54 1196.1 1335.53 1196.1 1328.23 1188.8 1328.23 1179.79 1328.23 1170.78 1335.53 1163.47 1344.54 1163.47 1353.55 1163.47 1360.86 1170.78 1360.86 1179.79Z" stroke="#000000" stroke-width="3.25417" stroke-linecap="round" stroke-linejoin="round" stroke-miterlimit="10"/><path d="M1556.34 1046.55C1556.34 1055.56 1549.03 1062.87 1540.02 1062.87 1531.01 1062.87 1523.7 1055.56 1523.7 1046.55 1523.7 1037.54 1531.01 1030.23 1540.02 1030.23 1549.03 1030.23 1556.34 1037.54 1556.34 1046.55Z" stroke="#000000" stroke-width="3.25417" stroke-linecap="round" stroke-linejoin="round" stroke-miterlimit="10"/><path d="M1392.58 1332.55C1392.58 1341.56 1385.27 1348.87 1376.26 1348.87 1367.25 1348.87 1359.94 1341.56 1359.94 1332.55 1359.94 1323.54 1367.25 1316.23 1376.26 1316.23 1385.27 1316.23 1392.58 1323.54 1392.58 1332.55Z" stroke="#000000" stroke-width="3.25417" stroke-linecap="round" stroke-linejoin="round" stroke-miterlimit="10"/><path d="M1036.22 1743.17C1036.22 1752.18 1028.92 1759.49 1019.9 1759.49 1010.89 1759.49 1003.59 1752.18 1003.59 1743.17 1003.59 1734.16 1010.89 1726.85 1019.9 1726.85 1028.92 1726.85 1036.22 1734.16 1036.22 1743.17Z" stroke="#000000" stroke-width="3.25417" stroke-linecap="round" stroke-linejoin="round" stroke-miterlimit="10"/><path d="M1314.43 1249.78C1314.43 1258.79 1307.12 1266.09 1298.11 1266.09 1289.1 1266.09 1281.8 1258.79 1281.8 1249.78 1281.8 1240.76 1289.1 1233.46 1298.11 1233.46 1307.12 1233.46 1314.43 1240.76 1314.43 1249.78Z" stroke="#000000" stroke-width="3.25417" stroke-linecap="round" stroke-linejoin="round" stroke-miterlimit="10"/><path d="M1789.49 994.713C1789.49 1003.72 1782.19 1011.03 1773.18 1011.03 1764.16 1011.03 1756.86 1003.72 1756.86 994.713 1756.86 985.701 1764.16 978.396 1773.18 978.396 1782.19 978.396 1789.49 985.701 1789.49 994.713Z" stroke="#000000" stroke-width="3.25417" stroke-linecap="round" stroke-linejoin="round" stroke-miterlimit="10"/><path d="M1378.69 1443.33C1378.69 1452.34 1371.38 1459.65 1362.37 1459.65 1353.36 1459.65 1346.05 1452.34 1346.05 1443.33 1346.05 1434.32 1353.36 1427.01 1362.37 1427.01 1371.38 1427.01 1378.69 1434.32 1378.69 1443.33Z" stroke="#000000" stroke-width="3.25417" stroke-linecap="round" stroke-linejoin="round" stroke-miterlimit="10"/><path d="M1247.65 1346.53C1247.65 1355.54 1240.34 1362.85 1231.33 1362.85 1222.32 1362.85 1215.02 1355.54 1215.02 1346.53 1215.02 1337.52 1222.32 1330.21 1231.33 1330.21 1240.34 1330.21 1247.65 1337.52 1247.65 1346.53Z" stroke="#000000" stroke-width="3.25417" stroke-linecap="round" stroke-linejoin="round" stroke-miterlimit="10"/><path d="M1214.6 1499.25C1214.6 1508.26 1207.3 1515.56 1198.29 1515.56 1189.28 1515.56 1181.97 1508.26 1181.97 1499.25 1181.97 1490.23 1189.28 1482.93 1198.29 1482.93 1207.3 1482.93 1214.6 1490.23 1214.6 1499.25Z" stroke="#000000" stroke-width="3.25417" stroke-linecap="round" stroke-linejoin="round" stroke-miterlimit="10"/><path d="M1739.17 682.267C1739.17 691.278 1731.86 698.583 1722.85 698.583 1713.84 698.583 1706.53 691.278 1706.53 682.267 1706.53 673.255 1713.84 665.95 1722.85 665.95 1731.86 665.95 1739.17 673.255 1739.17 682.267Z" stroke="#000000" stroke-width="3.25417" stroke-linecap="round" stroke-linejoin="round" stroke-miterlimit="10"/><path d="M1467.83 1162.55C1467.83 1171.57 1460.53 1178.87 1451.52 1178.87 1442.51 1178.87 1435.2 1171.57 1435.2 1162.55 1435.2 1153.54 1442.51 1146.24 1451.52 1146.24 1460.53 1146.24 1467.83 1153.54 1467.83 1162.55Z" stroke="#000000" stroke-width="3.25417" stroke-linecap="round" stroke-linejoin="round" stroke-miterlimit="10"/><path d="M1506.79 968.267C1506.79 977.278 1499.49 984.583 1490.48 984.583 1481.46 984.583 1474.16 977.278 1474.16 968.267 1474.16 959.255 1481.46 951.95 1490.48 951.95 1499.49 951.95 1506.79 959.255 1506.79 968.267Z" stroke="#000000" stroke-width="3.25417" stroke-linecap="round" stroke-linejoin="round" stroke-miterlimit="10"/><path d="M1549.88 1025.56C1549.88 1034.57 1542.57 1041.88 1533.56 1041.88 1524.55 1041.88 1517.24 1034.57 1517.24 1025.56 1517.24 1016.55 1524.55 1009.24 1533.56 1009.24 1542.57 1009.24 1549.88 1016.55 1549.88 1025.56Z" stroke="#000000" stroke-width="3.25417" stroke-linecap="round" stroke-linejoin="round" stroke-miterlimit="10"/><path d="M1364.53 1169.84C1364.53 1178.85 1357.22 1186.16 1348.21 1186.16 1339.2 1186.16 1331.89 1178.85 1331.89 1169.84 1331.89 1160.83 1339.2 1153.53 1348.21 1153.53 1357.22 1153.53 1364.53 1160.83 1364.53 1169.84Z" stroke="#000000" stroke-width="3.25417" stroke-linecap="round" stroke-linejoin="round" stroke-miterlimit="10"/><path d="M1440.47 1223.6C1440.47 1232.62 1433.17 1239.92 1424.15 1239.92 1415.14 1239.92 1407.84 1232.62 1407.84 1223.6 1407.84 1214.59 1415.14 1207.29 1424.15 1207.29 1433.17 1207.29 1440.47 1214.59 1440.47 1223.6Z" stroke="#000000" stroke-width="3.25417" stroke-linecap="round" stroke-linejoin="round" stroke-miterlimit="10"/><path d="M-681.796 3275.61 3471.44-877.625" stroke="#000000" stroke-width="4.90417" stroke-linejoin="round" stroke-miterlimit="10" fill="none"/><text fill="#0000FF" font-family="Arial,Arial_MSFontService,sans-serif" font-weight="400" font-size="17" transform="matrix(4.58333 0 0 4.58333 1425.85 1327)">A</text><text fill="#0000FF" font-family="Arial,Arial_MSFontService,sans-serif" font-weight="400" font-size="17" transform="matrix(4.58333 0 0 4.58333 1592.23 1002)">C</text><text fill="#0000FF" font-family="Arial,Arial_MSFontService,sans-serif" font-weight="400" font-size="17" transform="matrix(4.58333 0 0 4.58333 1427.41 1036)">D</text><text fill="#0000FF" font-family="Arial,Arial_MSFontService,sans-serif" font-weight="400" font-size="17" transform="matrix(4.58333 0 0 4.58333 1169.14 1519)">E</text><text fill="#0000FF" font-family="Arial,Arial_MSFontService,sans-serif" font-weight="400" font-size="17" transform="matrix(4.58333 0 0 4.58333 1448.31 1127)">F</text><text fill="#0000FF" font-family="Arial,Arial_MSFontService,sans-serif" font-weight="400" font-size="17" transform="matrix(4.58333 0 0 4.58333 1350.64 1180)">G</text><text fill="#0000FF" font-family="Arial,Arial_MSFontService,sans-serif" font-weight="400" font-size="17" transform="matrix(4.58333 0 0 4.58333 1545.66 1047)">H</text><text fill="#0000FF" font-family="Arial,Arial_MSFontService,sans-serif" font-weight="400" font-size="17" transform="matrix(4.58333 0 0 4.58333 1378.46 1333)">I</text><text fill="#0000FF" font-family="Arial,Arial_MSFontService,sans-serif" font-weight="400" font-size="17" transform="matrix(4.58333 0 0 4.58333 1025.08 1743)">K</text><text fill="#0000FF" font-family="Arial,Arial_MSFontService,sans-serif" font-weight="400" font-size="17" transform="matrix(4.58333 0 0 4.58333 1302.47 1250)">L</text><text fill="#0000FF" font-family="Arial,Arial_MSFontService,sans-serif" font-weight="400" font-size="17" transform="matrix(4.58333 0 0 4.58333 1779.68 995)">M</text><text fill="#0000FF" font-family="Arial,Arial_MSFontService,sans-serif" font-weight="400" font-size="17" transform="matrix(4.58333 0 0 4.58333 1368.01 1443)">N</text><text fill="#0000FF" font-family="Arial,Arial_MSFontService,sans-serif" font-weight="400" font-size="17" transform="matrix(4.58333 0 0 4.58333 1236.56 1347)">P</text><text fill="#0000FF" font-family="Arial,Arial_MSFontService,sans-serif" font-weight="400" font-size="17" transform="matrix(4.58333 0 0 4.58333 1204.38 1499)">Q</text><text fill="#0000FF" font-family="Arial,Arial_MSFontService,sans-serif" font-weight="400" font-size="17" transform="matrix(4.58333 0 0 4.58333 1728.49 682)">R</text><text fill="#0000FF" font-family="Arial,Arial_MSFontService,sans-serif" font-weight="400" font-size="17" transform="matrix(4.58333 0 0 4.58333 1456.74 1163)">S</text><text fill="#0000FF" font-family="Arial,Arial_MSFontService,sans-serif" font-weight="400" font-size="17" transform="matrix(4.58333 0 0 4.58333 1495.24 968)">T</text><text fill="#0000FF" font-family="Arial,Arial_MSFontService,sans-serif" font-weight="400" font-size="17" transform="matrix(4.58333 0 0 4.58333 1538.74 1026)">V</text><text fill="#0000FF" font-family="Arial,Arial_MSFontService,sans-serif" font-weight="400" font-size="17" transform="matrix(4.58333 0 0 4.58333 1355.59 1170)">W</text><text fill="#0000FF" font-family="Arial,Arial_MSFontService,sans-serif" font-weight="400" font-size="17" transform="matrix(4.58333 0 0 4.58333 1429.38 1224)">Y</text><path d="M702.6 506.771 2087 506.771 2087 1891.17 702.6 1891.17Z" stroke="#7F7F7F" stroke-width="4.90417" stroke-linecap="round" stroke-linejoin="round" stroke-miterlimit="10" fill="none"/></g><g clip-path="url(#clip5)"><text fill="#4D4D4D" font-family="Arial,Arial_MSFontService,sans-serif" font-weight="400" font-size="14" transform="matrix(4.58333 0 0 4.58333 565.421 1851)">-</text><text fill="#4D4D4D" font-family="Arial,Arial_MSFontService,sans-serif" font-weight="400" font-size="14" transform="matrix(4.58333 0 0 4.58333 588.338 1851)">0</text><text fill="#4D4D4D" font-family="Arial,Arial_MSFontService,sans-serif" font-weight="400" font-size="14" transform="matrix(4.58333 0 0 4.58333 625.004 1851)">.</text><text fill="#4D4D4D" font-family="Arial,Arial_MSFontService,sans-serif" font-weight="400" font-size="14" transform="matrix(4.58333 0 0 4.58333 643.338 1851)">3</text><text fill="#4D4D4D" font-family="Arial,Arial_MSFontService,sans-serif" font-weight="400" font-size="14" transform="matrix(4.58333 0 0 4.58333 565.421 1641)">-</text><text fill="#4D4D4D" font-family="Arial,Arial_MSFontService,sans-serif" font-weight="400" font-size="14" transform="matrix(4.58333 0 0 4.58333 588.338 1641)">0</text><text fill="#4D4D4D" font-family="Arial,Arial_MSFontService,sans-serif" font-weight="400" font-size="14" transform="matrix(4.58333 0 0 4.58333 625.004 1641)">.</text><text fill="#4D4D4D" font-family="Arial,Arial_MSFontService,sans-serif" font-weight="400" font-size="14" transform="matrix(4.58333 0 0 4.58333 643.338 1641)">2</text><text fill="#4D4D4D" font-family="Arial,Arial_MSFontService,sans-serif" font-weight="400" font-size="14" transform="matrix(4.58333 0 0 4.58333 565.421 1432)">-</text><text fill="#4D4D4D" font-family="Arial,Arial_MSFontService,sans-serif" font-weight="400" font-size="14" transform="matrix(4.58333 0 0 4.58333 588.338 1432)">0</text><text fill="#4D4D4D" font-family="Arial,Arial_MSFontService,sans-serif" font-weight="400" font-size="14" transform="matrix(4.58333 0 0 4.58333 625.004 1432)">.</text><text fill="#4D4D4D" font-family="Arial,Arial_MSFontService,sans-serif" font-weight="400" font-size="14" transform="matrix(4.58333 0 0 4.58333 643.338 1432)">1</text><text fill="#4D4D4D" font-family="Arial,Arial_MSFontService,sans-serif" font-weight="400" font-size="14" transform="matrix(4.58333 0 0 4.58333 588.338 1222)">0</text><text fill="#4D4D4D" font-family="Arial,Arial_MSFontService,sans-serif" font-weight="400" font-size="14" transform="matrix(4.58333 0 0 4.58333 625.004 1222)">.</text><text fill="#4D4D4D" font-family="Arial,Arial_MSFontService,sans-serif" font-weight="400" font-size="14" transform="matrix(4.58333 0 0 4.58333 643.338 1222)">0</text><text fill="#4D4D4D" font-family="Arial,Arial_MSFontService,sans-serif" font-weight="400" font-size="14" transform="matrix(4.58333 0 0 4.58333 588.338 1012)">0</text><text fill="#4D4D4D" font-family="Arial,Arial_MSFontService,sans-serif" font-weight="400" font-size="14" transform="matrix(4.58333 0 0 4.58333 625.004 1012)">.</text><text fill="#4D4D4D" font-family="Arial,Arial_MSFontService,sans-serif" font-weight="400" font-size="14" transform="matrix(4.58333 0 0 4.58333 643.338 1012)">1</text><text fill="#4D4D4D" font-family="Arial,Arial_MSFontService,sans-serif" font-weight="400" font-size="14" transform="matrix(4.58333 0 0 4.58333 588.338 802)">0</text><text fill="#4D4D4D" font-family="Arial,Arial_MSFontService,sans-serif" font-weight="400" font-size="14" transform="matrix(4.58333 0 0 4.58333 625.004 802)">.</text><text fill="#4D4D4D" font-family="Arial,Arial_MSFontService,sans-serif" font-weight="400" font-size="14" transform="matrix(4.58333 0 0 4.58333 643.338 802)">2</text><text fill="#4D4D4D" font-family="Arial,Arial_MSFontService,sans-serif" font-weight="400" font-size="14" transform="matrix(4.58333 0 0 4.58333 588.338 593)">0</text><text fill="#4D4D4D" font-family="Arial,Arial_MSFontService,sans-serif" font-weight="400" font-size="14" transform="matrix(4.58333 0 0 4.58333 625.004 593)">.</text><text fill="#4D4D4D" font-family="Arial,Arial_MSFontService,sans-serif" font-weight="400" font-size="14" transform="matrix(4.58333 0 0 4.58333 643.338 593)">3</text><path d="M690.042 1828.24 702.6 1828.24" stroke="#333333" stroke-width="4.90417" stroke-linejoin="round" stroke-miterlimit="10" fill="none"/><path d="M690.042 1618.5 702.6 1618.5" stroke="#333333" stroke-width="4.90417" stroke-linejoin="round" stroke-miterlimit="10" fill="none"/><path d="M690.042 1408.73 702.6 1408.73" stroke="#333333" stroke-width="4.90417" stroke-linejoin="round" stroke-miterlimit="10" fill="none"/><path d="M690.042 1198.99 702.6 1198.99" stroke="#333333" stroke-width="4.90417" stroke-linejoin="round" stroke-miterlimit="10" fill="none"/><path d="M690.042 989.213 702.6 989.213" stroke="#333333" stroke-width="4.90417" stroke-linejoin="round" stroke-miterlimit="10" fill="none"/><path d="M690.042 779.479 702.6 779.479" stroke="#333333" stroke-width="4.90417" stroke-linejoin="round" stroke-miterlimit="10" fill="none"/><path d="M690.042 569.7 702.6 569.7" stroke="#333333" stroke-width="4.90417" stroke-linejoin="round" stroke-miterlimit="10" fill="none"/><path d="M765.529 1903.72 765.529 1891.17" stroke="#333333" stroke-width="4.90417" stroke-linejoin="round" stroke-miterlimit="10" fill="none"/><path d="M975.308 1903.72 975.308 1891.17" stroke="#333333" stroke-width="4.90417" stroke-linejoin="round" stroke-miterlimit="10" fill="none"/><path d="M1185.04 1903.72 1185.04 1891.17" stroke="#333333" stroke-width="4.90417" stroke-linejoin="round" stroke-miterlimit="10" fill="none"/><path d="M1394.82 1903.72 1394.82 1891.17" stroke="#333333" stroke-width="4.90417" stroke-linejoin="round" stroke-miterlimit="10" fill="none"/><path d="M1604.6 1903.72 1604.6 1891.17" stroke="#333333" stroke-width="4.90417" stroke-linejoin="round" stroke-miterlimit="10" fill="none"/><path d="M1814.33 1903.72 1814.33 1891.17" stroke="#333333" stroke-width="4.90417" stroke-linejoin="round" stroke-miterlimit="10" fill="none"/><path d="M2024.11 1903.72 2024.11 1891.17" stroke="#333333" stroke-width="4.90417" stroke-linejoin="round" stroke-miterlimit="10" fill="none"/><text fill="#4D4D4D" font-family="Arial,Arial_MSFontService,sans-serif" font-weight="400" font-size="14" transform="matrix(4.58333 0 0 4.58333 708.238 1960)">-</text><text fill="#4D4D4D" font-family="Arial,Arial_MSFontService,sans-serif" font-weight="400" font-size="14" transform="matrix(4.58333 0 0 4.58333 731.154 1960)">0</text><text fill="#4D4D4D" font-family="Arial,Arial_MSFontService,sans-serif" font-weight="400" font-size="14" transform="matrix(4.58333 0 0 4.58333 767.821 1960)">.</text><text fill="#4D4D4D" font-family="Arial,Arial_MSFontService,sans-serif" font-weight="400" font-size="14" transform="matrix(4.58333 0 0 4.58333 786.154 1960)">3</text><text fill="#4D4D4D" font-family="Arial,Arial_MSFontService,sans-serif" font-weight="400" font-size="14" transform="matrix(4.58333 0 0 4.58333 918.017 1960)">-</text><text fill="#4D4D4D" font-family="Arial,Arial_MSFontService,sans-serif" font-weight="400" font-size="14" transform="matrix(4.58333 0 0 4.58333 940.933 1960)">0</text><text fill="#4D4D4D" font-family="Arial,Arial_MSFontService,sans-serif" font-weight="400" font-size="14" transform="matrix(4.58333 0 0 4.58333 977.6 1960)">.</text><text fill="#4D4D4D" font-family="Arial,Arial_MSFontService,sans-serif" font-weight="400" font-size="14" transform="matrix(4.58333 0 0 4.58333 995.933 1960)">2</text><text fill="#4D4D4D" font-family="Arial,Arial_MSFontService,sans-serif" font-weight="400" font-size="14" transform="matrix(4.58333 0 0 4.58333 1127.75 1960)">-</text><text fill="#4D4D4D" font-family="Arial,Arial_MSFontService,sans-serif" font-weight="400" font-size="14" transform="matrix(4.58333 0 0 4.58333 1150.67 1960)">0</text><text fill="#4D4D4D" font-family="Arial,Arial_MSFontService,sans-serif" font-weight="400" font-size="14" transform="matrix(4.58333 0 0 4.58333 1187.33 1960)">.</text><text fill="#4D4D4D" font-family="Arial,Arial_MSFontService,sans-serif" font-weight="400" font-size="14" transform="matrix(4.58333 0 0 4.58333 1205.67 1960)">1</text><text fill="#4D4D4D" font-family="Arial,Arial_MSFontService,sans-serif" font-weight="400" font-size="14" transform="matrix(4.58333 0 0 4.58333 1348.99 1960)">0</text><text fill="#4D4D4D" font-family="Arial,Arial_MSFontService,sans-serif" font-weight="400" font-size="14" transform="matrix(4.58333 0 0 4.58333 1385.65 1960)">.</text><text fill="#4D4D4D" font-family="Arial,Arial_MSFontService,sans-serif" font-weight="400" font-size="14" transform="matrix(4.58333 0 0 4.58333 1403.99 1960)">0</text><text fill="#4D4D4D" font-family="Arial,Arial_MSFontService,sans-serif" font-weight="400" font-size="14" transform="matrix(4.58333 0 0 4.58333 1558.77 1960)">0</text><text fill="#4D4D4D" font-family="Arial,Arial_MSFontService,sans-serif" font-weight="400" font-size="14" transform="matrix(4.58333 0 0 4.58333 1595.43 1960)">.</text><text fill="#4D4D4D" font-family="Arial,Arial_MSFontService,sans-serif" font-weight="400" font-size="14" transform="matrix(4.58333 0 0 4.58333 1613.77 1960)">1</text><text fill="#4D4D4D" font-family="Arial,Arial_MSFontService,sans-serif" font-weight="400" font-size="14" transform="matrix(4.58333 0 0 4.58333 1768.5 1960)">0</text><text fill="#4D4D4D" font-family="Arial,Arial_MSFontService,sans-serif" font-weight="400" font-size="14" transform="matrix(4.58333 0 0 4.58333 1805.17 1960)">.</text><text fill="#4D4D4D" font-family="Arial,Arial_MSFontService,sans-serif" font-weight="400" font-size="14" transform="matrix(4.58333 0 0 4.58333 1823.5 1960)">2</text><text fill="#4D4D4D" font-family="Arial,Arial_MSFontService,sans-serif" font-weight="400" font-size="14" transform="matrix(4.58333 0 0 4.58333 1978.28 1960)">0</text><text fill="#4D4D4D" font-family="Arial,Arial_MSFontService,sans-serif" font-weight="400" font-size="14" transform="matrix(4.58333 0 0 4.58333 2014.95 1960)">.</text><text fill="#4D4D4D" font-family="Arial,Arial_MSFontService,sans-serif" font-weight="400" font-size="14" transform="matrix(4.58333 0 0 4.58333 2033.28 1960)">3</text><text font-family="Arial,Arial_MSFontService,sans-serif" font-weight="700" font-size="16" transform="matrix(4.58333 0 0 4.58333 1204.61 2038)">Mouse flux</text><text font-family="Arial,Arial_MSFontService,sans-serif" font-weight="700" font-size="16" transform="matrix(2.80648e-16 -4.58333 4.58333 2.80648e-16 541.496 1332)">Rat flux</text></g></g></g></g><g clip-path="url(#clip6)"><g clip-path="url(#clip7)"><g clip-path="url(#clip8)"><path d="M2274 452 3924 452 3924 2102 2274 2102Z" fill="#FFFFFF"/><g><path d="M2274 487.292 3924 487.292 3924 2066.71 2274 2066.71Z" stroke="#FFFFFF" stroke-width="4.90417" stroke-linecap="round" stroke-linejoin="round" stroke-miterlimit="10" fill="#FFFFFF"/></g><g clip-path="url(#clip9)"><path d="M2500.6 506.771 3885 506.771 3885 1891.17 2500.6 1891.17Z" stroke="#7F7F7F" stroke-width="4.90417" stroke-linecap="round" stroke-linejoin="round" stroke-miterlimit="10" fill="#FFFFFF"/><path d="M2500.6 1828.24 3885.04 1828.24" stroke="#E5E5E5" stroke-width="4.90417" stroke-linejoin="round" stroke-miterlimit="10" fill="none"/><path d="M2500.6 1618.5 3885.04 1618.5" stroke="#E5E5E5" stroke-width="4.90417" stroke-linejoin="round" stroke-miterlimit="10" fill="none"/><path d="M2500.6 1408.73 3885.04 1408.73" stroke="#E5E5E5" stroke-width="4.90417" stroke-linejoin="round" stroke-miterlimit="10" fill="none"/><path d="M2500.6 1198.99 3885.04 1198.99" stroke="#E5E5E5" stroke-width="4.90417" stroke-linejoin="round" stroke-miterlimit="10" fill="none"/><path d="M2500.6 989.213 3885.04 989.213" stroke="#E5E5E5" stroke-width="4.90417" stroke-linejoin="round" stroke-miterlimit="10" fill="none"/><path d="M2500.6 779.479 3885.04 779.479" stroke="#E5E5E5" stroke-width="4.90417" stroke-linejoin="round" stroke-miterlimit="10" fill="none"/><path d="M2500.6 569.7 3885.04 569.7" stroke="#E5E5E5" stroke-width="4.90417" stroke-linejoin="round" stroke-miterlimit="10" fill="none"/><path d="M2563.53 1891.17 2563.53 506.771" stroke="#E5E5E5" stroke-width="4.90417" stroke-linejoin="round" stroke-miterlimit="10" fill="none"/><path d="M2773.31 1891.17 2773.31 506.771" stroke="#E5E5E5" stroke-width="4.90417" stroke-linejoin="round" stroke-miterlimit="10" fill="none"/><path d="M2983.04 1891.17 2983.04 506.771" stroke="#E5E5E5" stroke-width="4.90417" stroke-linejoin="round" stroke-miterlimit="10" fill="none"/><path d="M3192.82 1891.17 3192.82 506.771" stroke="#E5E5E5" stroke-width="4.90417" stroke-linejoin="round" stroke-miterlimit="10" fill="none"/><path d="M3402.6 1891.17 3402.6 506.771" stroke="#E5E5E5" stroke-width="4.90417" stroke-linejoin="round" stroke-miterlimit="10" fill="none"/><path d="M3612.33 1891.17 3612.33 506.771" stroke="#E5E5E5" stroke-width="4.90417" stroke-linejoin="round" stroke-miterlimit="10" fill="none"/><path d="M3822.11 1891.17 3822.11 506.771" stroke="#E5E5E5" stroke-width="4.90417" stroke-linejoin="round" stroke-miterlimit="10" fill="none"/><text font-family="Arial,Arial_MSFontService,sans-serif" font-weight="400" font-size="17" transform="matrix(4.58333 0 0 4.58333 3424.42 1695)">R </text><text font-family="Arial,Arial_MSFontService,sans-serif" font-weight="400" font-size="17" transform="matrix(4.58333 0 0 4.58333 3497.75 1695)">=  </text><text font-family="Arial,Arial_MSFontService,sans-serif" font-weight="400" font-size="17" transform="matrix(4.58333 0 0 4.58333 3589.42 1695)">0</text><text font-family="Arial,Arial_MSFontService,sans-serif" font-weight="400" font-size="17" transform="matrix(4.58333 0 0 4.58333 3630.67 1695)">.</text><text font-family="Arial,Arial_MSFontService,sans-serif" font-weight="400" font-size="17" transform="matrix(4.58333 0 0 4.58333 3653.58 1695)">863 </text><text font-family="Arial,Arial_MSFontService,sans-serif" font-weight="400" font-size="17" transform="matrix(4.58333 0 0 4.58333 3438.17 1808)">p </text><text font-family="Arial,Arial_MSFontService,sans-serif" font-weight="400" font-size="17" transform="matrix(4.58333 0 0 4.58333 3502.33 1808)">=  </text><text font-family="Arial,Arial_MSFontService,sans-serif" font-weight="400" font-size="17" transform="matrix(4.58333 0 0 4.58333 3594 1808)">9</text><text font-family="Arial,Arial_MSFontService,sans-serif" font-weight="400" font-size="17" transform="matrix(4.58333 0 0 4.58333 3635.25 1808)">e</text><text font-family="Arial,Arial_MSFontService,sans-serif" font-weight="400" font-size="17" transform="matrix(4.58333 0 0 4.58333 3676.5 1808)">-</text><text font-family="Arial,Arial_MSFontService,sans-serif" font-weight="400" font-size="17" transform="matrix(4.58333 0 0 4.58333 3704 1808)">07</text><path d="M3140.94 1322.88 3239.98 1322.88" stroke="#000000" stroke-width="4.90417" stroke-linejoin="round" stroke-miterlimit="10" fill="none"/><path d="M3287.28 610.446 3470.89 610.446" stroke="#000000" stroke-width="4.90417" stroke-linejoin="round" stroke-miterlimit="10" fill="none"/><path d="M2973.69 1427.61 3098.45 1427.61" stroke="#000000" stroke-width="4.90417" stroke-linejoin="round" stroke-miterlimit="10" fill="none"/><path d="M3214.09 689.554 3378.72 689.554" stroke="#000000" stroke-width="4.90417" stroke-linejoin="round" stroke-miterlimit="10" fill="none"/><path d="M3101.2 1498.65 3210.47 1498.65" stroke="#000000" stroke-width="4.90417" stroke-linejoin="round" stroke-miterlimit="10" fill="none"/><path d="M3324.55 639.642 3470.34 639.642" stroke="#000000" stroke-width="4.90417" stroke-linejoin="round" stroke-miterlimit="10" fill="none"/><path d="M3197.73 931.05 3323.26 931.05" stroke="#000000" stroke-width="4.90417" stroke-linejoin="round" stroke-miterlimit="10" fill="none"/><path d="M3010.27 1268.57 3115.5 1268.57" stroke="#000000" stroke-width="4.90417" stroke-linejoin="round" stroke-miterlimit="10" fill="none"/><path d="M3050.14 1257.98 3139.75 1257.98" stroke="#000000" stroke-width="4.90417" stroke-linejoin="round" stroke-miterlimit="10" fill="none"/><path d="M3515.12 686.254 3667.98 686.254" stroke="#000000" stroke-width="4.90417" stroke-linejoin="round" stroke-miterlimit="10" fill="none"/><path d="M3369.46 1050.68 3506.5 1050.68" stroke="#000000" stroke-width="4.90417" stroke-linejoin="round" stroke-miterlimit="10" fill="none"/><path d="M3050.88 1249.78 3165.46 1249.78" stroke="#000000" stroke-width="4.90417" stroke-linejoin="round" stroke-miterlimit="10" fill="none"/><path d="M3252.91 1194.82 3353.01 1194.82" stroke="#000000" stroke-width="4.90417" stroke-linejoin="round" stroke-miterlimit="10" fill="none"/><path d="M3222.75 982.842 3309.24 982.842" stroke="#000000" stroke-width="4.90417" stroke-linejoin="round" stroke-miterlimit="10" fill="none"/><path d="M3194.61 1053.61 3302.91 1053.61" stroke="#000000" stroke-width="4.90417" stroke-linejoin="round" stroke-miterlimit="10" fill="none"/><path d="M3405.44 1159.07 3505.18 1159.07" stroke="#000000" stroke-width="4.90417" stroke-linejoin="round" stroke-miterlimit="10" fill="none"/><path d="M3076.77 1307.11 3272.39 1307.11" stroke="#000000" stroke-width="4.90417" stroke-linejoin="round" stroke-miterlimit="10" fill="none"/><path d="M3203.5 1322.88C3203.5 1330.07 3197.67 1335.9 3190.48 1335.9 3183.29 1335.9 3177.47 1330.07 3177.47 1322.88 3177.47 1315.69 3183.29 1309.86 3190.48 1309.86 3197.67 1309.86 3203.5 1315.69 3203.5 1322.88Z" stroke="#000000" stroke-width="6.50833" stroke-linecap="round" stroke-linejoin="round" stroke-miterlimit="10"/><path d="M3392.1 610.446C3392.1 617.635 3386.28 623.463 3379.09 623.463 3371.9 623.463 3366.07 617.635 3366.07 610.446 3366.07 603.257 3371.9 597.429 3379.09 597.429 3386.28 597.429 3392.1 603.257 3392.1 610.446Z" stroke="#000000" stroke-width="6.50833" stroke-linecap="round" stroke-linejoin="round" stroke-miterlimit="10"/><path d="M3049.09 1427.61C3049.09 1434.8 3043.26 1440.62 3036.07 1440.62 3028.88 1440.62 3023.05 1434.8 3023.05 1427.61 3023.05 1420.42 3028.88 1414.59 3036.07 1414.59 3043.26 1414.59 3049.09 1420.42 3049.09 1427.61Z" stroke="#000000" stroke-width="6.50833" stroke-linecap="round" stroke-linejoin="round" stroke-miterlimit="10"/><path d="M3309.42 689.554C3309.42 696.743 3303.59 702.571 3296.4 702.571 3289.22 702.571 3283.39 696.743 3283.39 689.554 3283.39 682.365 3289.22 676.538 3296.4 676.538 3303.59 676.538 3309.42 682.365 3309.42 689.554Z" stroke="#000000" stroke-width="6.50833" stroke-linecap="round" stroke-linejoin="round" stroke-miterlimit="10"/><path d="M3168.85 1498.65C3168.85 1505.84 3163.02 1511.67 3155.83 1511.67 3148.64 1511.67 3142.82 1505.84 3142.82 1498.65 3142.82 1491.46 3148.64 1485.63 3155.83 1485.63 3163.02 1485.63 3168.85 1491.46 3168.85 1498.65Z" stroke="#000000" stroke-width="6.50833" stroke-linecap="round" stroke-linejoin="round" stroke-miterlimit="10"/><path d="M3410.48 639.642C3410.48 646.831 3404.66 652.658 3397.47 652.658 3390.28 652.658 3384.45 646.831 3384.45 639.642 3384.45 632.453 3390.28 626.625 3397.47 626.625 3404.66 626.625 3410.48 632.453 3410.48 639.642Z" stroke="#000000" stroke-width="6.50833" stroke-linecap="round" stroke-linejoin="round" stroke-miterlimit="10"/><path d="M3273.49 931.05C3273.49 938.239 3267.66 944.067 3260.47 944.067 3253.28 944.067 3247.45 938.239 3247.45 931.05 3247.45 923.861 3253.28 918.033 3260.47 918.033 3267.66 918.033 3273.49 923.861 3273.49 931.05Z" stroke="#000000" stroke-width="6.50833" stroke-linecap="round" stroke-linejoin="round" stroke-miterlimit="10"/><path d="M3075.9 1268.57C3075.9 1275.76 3070.07 1281.58 3062.88 1281.58 3055.69 1281.58 3049.87 1275.76 3049.87 1268.57 3049.87 1261.38 3055.69 1255.55 3062.88 1255.55 3070.07 1255.55 3075.9 1261.38 3075.9 1268.57Z" stroke="#000000" stroke-width="6.50833" stroke-linecap="round" stroke-linejoin="round" stroke-miterlimit="10"/><path d="M3107.98 1257.98C3107.98 1265.17 3102.16 1271 3094.97 1271 3087.78 1271 3081.95 1265.17 3081.95 1257.98 3081.95 1250.79 3087.78 1244.96 3094.97 1244.96 3102.16 1244.96 3107.98 1250.79 3107.98 1257.98Z" stroke="#000000" stroke-width="6.50833" stroke-linecap="round" stroke-linejoin="round" stroke-miterlimit="10"/><path d="M3604.54 686.254C3604.54 693.443 3598.71 699.271 3591.52 699.271 3584.34 699.271 3578.51 693.443 3578.51 686.254 3578.51 679.065 3584.34 673.238 3591.52 673.238 3598.71 673.238 3604.54 679.065 3604.54 686.254Z" stroke="#000000" stroke-width="6.50833" stroke-linecap="round" stroke-linejoin="round" stroke-miterlimit="10"/><path d="M3451 1050.68C3451 1057.86 3445.17 1063.69 3437.98 1063.69 3430.79 1063.69 3424.97 1057.86 3424.97 1050.68 3424.97 1043.49 3430.79 1037.66 3437.98 1037.66 3445.17 1037.66 3451 1043.49 3451 1050.68Z" stroke="#000000" stroke-width="6.50833" stroke-linecap="round" stroke-linejoin="round" stroke-miterlimit="10"/><path d="M3121.18 1249.78C3121.18 1256.96 3115.36 1262.79 3108.17 1262.79 3100.98 1262.79 3095.15 1256.96 3095.15 1249.78 3095.15 1242.59 3100.98 1236.76 3108.17 1236.76 3115.36 1236.76 3121.18 1242.59 3121.18 1249.78Z" stroke="#000000" stroke-width="6.50833" stroke-linecap="round" stroke-linejoin="round" stroke-miterlimit="10"/><path d="M3315.98 1194.82C3315.98 1202.01 3310.15 1207.84 3302.96 1207.84 3295.77 1207.84 3289.94 1202.01 3289.94 1194.82 3289.94 1187.63 3295.77 1181.8 3302.96 1181.8 3310.15 1181.8 3315.98 1187.63 3315.98 1194.82Z" stroke="#000000" stroke-width="6.50833" stroke-linecap="round" stroke-linejoin="round" stroke-miterlimit="10"/><path d="M3279.03 982.842C3279.03 990.031 3273.21 995.858 3266.02 995.858 3258.83 995.858 3253 990.031 3253 982.842 3253 975.653 3258.83 969.825 3266.02 969.825 3273.21 969.825 3279.03 975.653 3279.03 982.842Z" stroke="#000000" stroke-width="6.50833" stroke-linecap="round" stroke-linejoin="round" stroke-miterlimit="10"/><path d="M3261.75 1053.61C3261.75 1060.8 3255.93 1066.62 3248.74 1066.62 3241.55 1066.62 3235.72 1060.8 3235.72 1053.61 3235.72 1046.42 3241.55 1040.59 3248.74 1040.59 3255.93 1040.59 3261.75 1046.42 3261.75 1053.61Z" stroke="#000000" stroke-width="6.50833" stroke-linecap="round" stroke-linejoin="round" stroke-miterlimit="10"/><path d="M3468.32 1159.07C3468.32 1166.26 3462.5 1172.09 3455.31 1172.09 3448.12 1172.09 3442.29 1166.26 3442.29 1159.07 3442.29 1151.88 3448.12 1146.05 3455.31 1146.05 3462.5 1146.05 3468.32 1151.88 3468.32 1159.07Z" stroke="#000000" stroke-width="6.50833" stroke-linecap="round" stroke-linejoin="round" stroke-miterlimit="10"/><path d="M3187.6 1307.11C3187.6 1314.3 3181.77 1320.13 3174.58 1320.13 3167.39 1320.13 3161.56 1314.3 3161.56 1307.11 3161.56 1299.92 3167.39 1294.1 3174.58 1294.1 3181.77 1294.1 3187.6 1299.92 3187.6 1307.11Z" stroke="#000000" stroke-width="6.50833" stroke-linecap="round" stroke-linejoin="round" stroke-miterlimit="10"/><path d="M3190.48 1390.9 3190.48 1254.86" stroke="#000000" stroke-width="4.90417" stroke-linejoin="round" stroke-miterlimit="10" fill="none"/><path d="M3036.07 1529.13 3036.07 1326.13" stroke="#000000" stroke-width="4.90417" stroke-linejoin="round" stroke-miterlimit="10" fill="none"/><path d="M3155.83 1581.33 3155.83 1415.92" stroke="#000000" stroke-width="4.90417" stroke-linejoin="round" stroke-miterlimit="10" fill="none"/><path d="M3260.47 1013.18 3260.47 848.963" stroke="#000000" stroke-width="4.90417" stroke-linejoin="round" stroke-miterlimit="10" fill="none"/><path d="M3062.88 1370.64 3062.88 1166.5" stroke="#000000" stroke-width="4.90417" stroke-linejoin="round" stroke-miterlimit="10" fill="none"/><path d="M3094.97 1332.96 3094.97 1183" stroke="#000000" stroke-width="4.90417" stroke-linejoin="round" stroke-miterlimit="10" fill="none"/><path d="M3591.52 793.413 3591.52 579.05" stroke="#000000" stroke-width="4.90417" stroke-linejoin="round" stroke-miterlimit="10" fill="none"/><path d="M3437.98 1155.82 3437.98 945.533" stroke="#000000" stroke-width="4.90417" stroke-linejoin="round" stroke-miterlimit="10" fill="none"/><path d="M3108.17 1337 3108.17 1162.55" stroke="#000000" stroke-width="4.90417" stroke-linejoin="round" stroke-miterlimit="10" fill="none"/><path d="M3302.96 1260.73 3302.96 1128.96" stroke="#000000" stroke-width="4.90417" stroke-linejoin="round" stroke-miterlimit="10" fill="none"/><path d="M3266.02 1049.16 3266.02 916.567" stroke="#000000" stroke-width="4.90417" stroke-linejoin="round" stroke-miterlimit="10" fill="none"/><path d="M3248.74 1127.22 3248.74 980" stroke="#000000" stroke-width="4.90417" stroke-linejoin="round" stroke-miterlimit="10" fill="none"/><path d="M3455.31 1227.27 3455.31 1090.87" stroke="#000000" stroke-width="4.90417" stroke-linejoin="round" stroke-miterlimit="10" fill="none"/><path d="M3174.58 1457.49 3174.58 1156.69" stroke="#000000" stroke-width="4.90417" stroke-linejoin="round" stroke-miterlimit="10" fill="none"/><path d="M3203.5 1322.88C3203.5 1330.07 3197.67 1335.9 3190.48 1335.9 3183.29 1335.9 3177.47 1330.07 3177.47 1322.88 3177.47 1315.69 3183.29 1309.86 3190.48 1309.86 3197.67 1309.86 3203.5 1315.69 3203.5 1322.88Z" stroke="#000000" stroke-width="6.50833" stroke-linecap="round" stroke-linejoin="round" stroke-miterlimit="10"/><path d="M3392.1 610.446C3392.1 617.635 3386.28 623.463 3379.09 623.463 3371.9 623.463 3366.07 617.635 3366.07 610.446 3366.07 603.257 3371.9 597.429 3379.09 597.429 3386.28 597.429 3392.1 603.257 3392.1 610.446Z" stroke="#000000" stroke-width="6.50833" stroke-linecap="round" stroke-linejoin="round" stroke-miterlimit="10"/><path d="M3049.09 1427.61C3049.09 1434.8 3043.26 1440.62 3036.07 1440.62 3028.88 1440.62 3023.05 1434.8 3023.05 1427.61 3023.05 1420.42 3028.88 1414.59 3036.07 1414.59 3043.26 1414.59 3049.09 1420.42 3049.09 1427.61Z" stroke="#000000" stroke-width="6.50833" stroke-linecap="round" stroke-linejoin="round" stroke-miterlimit="10"/><path d="M3309.42 689.554C3309.42 696.743 3303.59 702.571 3296.4 702.571 3289.22 702.571 3283.39 696.743 3283.39 689.554 3283.39 682.365 3289.22 676.538 3296.4 676.538 3303.59 676.538 3309.42 682.365 3309.42 689.554Z" stroke="#000000" stroke-width="6.50833" stroke-linecap="round" stroke-linejoin="round" stroke-miterlimit="10"/><path d="M3168.85 1498.65C3168.85 1505.84 3163.02 1511.67 3155.83 1511.67 3148.64 1511.67 3142.82 1505.84 3142.82 1498.65 3142.82 1491.46 3148.64 1485.63 3155.83 1485.63 3163.02 1485.63 3168.85 1491.46 3168.85 1498.65Z" stroke="#000000" stroke-width="6.50833" stroke-linecap="round" stroke-linejoin="round" stroke-miterlimit="10"/><path d="M3410.48 639.642C3410.48 646.831 3404.66 652.658 3397.47 652.658 3390.28 652.658 3384.45 646.831 3384.45 639.642 3384.45 632.453 3390.28 626.625 3397.47 626.625 3404.66 626.625 3410.48 632.453 3410.48 639.642Z" stroke="#000000" stroke-width="6.50833" stroke-linecap="round" stroke-linejoin="round" stroke-miterlimit="10"/><path d="M3273.49 931.05C3273.49 938.239 3267.66 944.067 3260.47 944.067 3253.28 944.067 3247.45 938.239 3247.45 931.05 3247.45 923.861 3253.28 918.033 3260.47 918.033 3267.66 918.033 3273.49 923.861 3273.49 931.05Z" stroke="#000000" stroke-width="6.50833" stroke-linecap="round" stroke-linejoin="round" stroke-miterlimit="10"/><path d="M3075.9 1268.57C3075.9 1275.76 3070.07 1281.58 3062.88 1281.58 3055.69 1281.58 3049.87 1275.76 3049.87 1268.57 3049.87 1261.38 3055.69 1255.55 3062.88 1255.55 3070.07 1255.55 3075.9 1261.38 3075.9 1268.57Z" stroke="#000000" stroke-width="6.50833" stroke-linecap="round" stroke-linejoin="round" stroke-miterlimit="10"/><path d="M3107.98 1257.98C3107.98 1265.17 3102.16 1271 3094.97 1271 3087.78 1271 3081.95 1265.17 3081.95 1257.98 3081.95 1250.79 3087.78 1244.96 3094.97 1244.96 3102.16 1244.96 3107.98 1250.79 3107.98 1257.98Z" stroke="#000000" stroke-width="6.50833" stroke-linecap="round" stroke-linejoin="round" stroke-miterlimit="10"/><path d="M3604.54 686.254C3604.54 693.443 3598.71 699.271 3591.52 699.271 3584.34 699.271 3578.51 693.443 3578.51 686.254 3578.51 679.065 3584.34 673.238 3591.52 673.238 3598.71 673.238 3604.54 679.065 3604.54 686.254Z" stroke="#000000" stroke-width="6.50833" stroke-linecap="round" stroke-linejoin="round" stroke-miterlimit="10"/><path d="M3451 1050.68C3451 1057.86 3445.17 1063.69 3437.98 1063.69 3430.79 1063.69 3424.97 1057.86 3424.97 1050.68 3424.97 1043.49 3430.79 1037.66 3437.98 1037.66 3445.17 1037.66 3451 1043.49 3451 1050.68Z" stroke="#000000" stroke-width="6.50833" stroke-linecap="round" stroke-linejoin="round" stroke-miterlimit="10"/><path d="M3121.18 1249.78C3121.18 1256.96 3115.36 1262.79 3108.17 1262.79 3100.98 1262.79 3095.15 1256.96 3095.15 1249.78 3095.15 1242.59 3100.98 1236.76 3108.17 1236.76 3115.36 1236.76 3121.18 1242.59 3121.18 1249.78Z" stroke="#000000" stroke-width="6.50833" stroke-linecap="round" stroke-linejoin="round" stroke-miterlimit="10"/><path d="M3315.98 1194.82C3315.98 1202.01 3310.15 1207.84 3302.96 1207.84 3295.77 1207.84 3289.94 1202.01 3289.94 1194.82 3289.94 1187.63 3295.77 1181.8 3302.96 1181.8 3310.15 1181.8 3315.98 1187.63 3315.98 1194.82Z" stroke="#000000" stroke-width="6.50833" stroke-linecap="round" stroke-linejoin="round" stroke-miterlimit="10"/><path d="M3279.03 982.842C3279.03 990.031 3273.21 995.858 3266.02 995.858 3258.83 995.858 3253 990.031 3253 982.842 3253 975.653 3258.83 969.825 3266.02 969.825 3273.21 969.825 3279.03 975.653 3279.03 982.842Z" stroke="#000000" stroke-width="6.50833" stroke-linecap="round" stroke-linejoin="round" stroke-miterlimit="10"/><path d="M3261.75 1053.61C3261.75 1060.8 3255.93 1066.62 3248.74 1066.62 3241.55 1066.62 3235.72 1060.8 3235.72 1053.61 3235.72 1046.42 3241.55 1040.59 3248.74 1040.59 3255.93 1040.59 3261.75 1046.42 3261.75 1053.61Z" stroke="#000000" stroke-width="6.50833" stroke-linecap="round" stroke-linejoin="round" stroke-miterlimit="10"/><path d="M3468.32 1159.07C3468.32 1166.26 3462.5 1172.09 3455.31 1172.09 3448.12 1172.09 3442.29 1166.26 3442.29 1159.07 3442.29 1151.88 3448.12 1146.05 3455.31 1146.05 3462.5 1146.05 3468.32 1151.88 3468.32 1159.07Z" stroke="#000000" stroke-width="6.50833" stroke-linecap="round" stroke-linejoin="round" stroke-miterlimit="10"/><path d="M3187.6 1307.11C3187.6 1314.3 3181.77 1320.13 3174.58 1320.13 3167.39 1320.13 3161.56 1314.3 3161.56 1307.11 3161.56 1299.92 3167.39 1294.1 3174.58 1294.1 3181.77 1294.1 3187.6 1299.92 3187.6 1307.11Z" stroke="#000000" stroke-width="6.50833" stroke-linecap="round" stroke-linejoin="round" stroke-miterlimit="10"/><path d="M3206.8 1322.88C3206.8 1331.89 3199.49 1339.2 3190.48 1339.2 3181.47 1339.2 3174.17 1331.89 3174.17 1322.88 3174.17 1313.87 3181.47 1306.56 3190.48 1306.56 3199.49 1306.56 3206.8 1313.87 3206.8 1322.88Z" stroke="#000000" stroke-width="3.25417" stroke-linecap="round" stroke-linejoin="round" stroke-miterlimit="10"/><path d="M3395.4 610.446C3395.4 619.457 3388.1 626.763 3379.09 626.763 3370.08 626.763 3362.77 619.457 3362.77 610.446 3362.77 601.434 3370.08 594.129 3379.09 594.129 3388.1 594.129 3395.4 601.434 3395.4 610.446Z" stroke="#000000" stroke-width="3.25417" stroke-linecap="round" stroke-linejoin="round" stroke-miterlimit="10"/><path d="M3052.39 1427.61C3052.39 1436.62 3045.08 1443.93 3036.07 1443.93 3027.06 1443.93 3019.75 1436.62 3019.75 1427.61 3019.75 1418.6 3027.06 1411.29 3036.07 1411.29 3045.08 1411.29 3052.39 1418.6 3052.39 1427.61Z" stroke="#000000" stroke-width="3.25417" stroke-linecap="round" stroke-linejoin="round" stroke-miterlimit="10"/><path d="M3312.72 689.554C3312.72 698.566 3305.42 705.871 3296.4 705.871 3287.39 705.871 3280.09 698.566 3280.09 689.554 3280.09 680.543 3287.39 673.238 3296.4 673.238 3305.42 673.238 3312.72 680.543 3312.72 689.554Z" stroke="#000000" stroke-width="3.25417" stroke-linecap="round" stroke-linejoin="round" stroke-miterlimit="10"/><path d="M3172.15 1498.65C3172.15 1507.66 3164.84 1514.97 3155.83 1514.97 3146.82 1514.97 3139.52 1507.66 3139.52 1498.65 3139.52 1489.64 3146.82 1482.33 3155.83 1482.33 3164.84 1482.33 3172.15 1489.64 3172.15 1498.65Z" stroke="#000000" stroke-width="3.25417" stroke-linecap="round" stroke-linejoin="round" stroke-miterlimit="10"/><path d="M3413.78 639.642C3413.78 648.653 3406.48 655.958 3397.47 655.958 3388.46 655.958 3381.15 648.653 3381.15 639.642 3381.15 630.63 3388.46 623.325 3397.47 623.325 3406.48 623.325 3413.78 630.63 3413.78 639.642Z" stroke="#000000" stroke-width="3.25417" stroke-linecap="round" stroke-linejoin="round" stroke-miterlimit="10"/><path d="M3276.79 931.05C3276.79 940.061 3269.48 947.367 3260.47 947.367 3251.46 947.367 3244.15 940.061 3244.15 931.05 3244.15 922.039 3251.46 914.733 3260.47 914.733 3269.48 914.733 3276.79 922.039 3276.79 931.05Z" stroke="#000000" stroke-width="3.25417" stroke-linecap="round" stroke-linejoin="round" stroke-miterlimit="10"/><path d="M3079.2 1268.57C3079.2 1277.58 3071.89 1284.88 3062.88 1284.88 3053.87 1284.88 3046.57 1277.58 3046.57 1268.57 3046.57 1259.56 3053.87 1252.25 3062.88 1252.25 3071.89 1252.25 3079.2 1259.56 3079.2 1268.57Z" stroke="#000000" stroke-width="3.25417" stroke-linecap="round" stroke-linejoin="round" stroke-miterlimit="10"/><path d="M3111.28 1257.98C3111.28 1266.99 3103.98 1274.3 3094.97 1274.3 3085.96 1274.3 3078.65 1266.99 3078.65 1257.98 3078.65 1248.97 3085.96 1241.66 3094.97 1241.66 3103.98 1241.66 3111.28 1248.97 3111.28 1257.98Z" stroke="#000000" stroke-width="3.25417" stroke-linecap="round" stroke-linejoin="round" stroke-miterlimit="10"/><path d="M3607.84 686.254C3607.84 695.266 3600.54 702.571 3591.52 702.571 3582.51 702.571 3575.21 695.266 3575.21 686.254 3575.21 677.243 3582.51 669.938 3591.52 669.938 3600.54 669.938 3607.84 677.243 3607.84 686.254Z" stroke="#000000" stroke-width="3.25417" stroke-linecap="round" stroke-linejoin="round" stroke-miterlimit="10"/><path d="M3454.3 1050.68C3454.3 1059.69 3446.99 1066.99 3437.98 1066.99 3428.97 1066.99 3421.67 1059.69 3421.67 1050.68 3421.67 1041.66 3428.97 1034.36 3437.98 1034.36 3446.99 1034.36 3454.3 1041.66 3454.3 1050.68Z" stroke="#000000" stroke-width="3.25417" stroke-linecap="round" stroke-linejoin="round" stroke-miterlimit="10"/><path d="M3124.48 1249.78C3124.48 1258.79 3117.18 1266.09 3108.17 1266.09 3099.16 1266.09 3091.85 1258.79 3091.85 1249.78 3091.85 1240.76 3099.16 1233.46 3108.17 1233.46 3117.18 1233.46 3124.48 1240.76 3124.48 1249.78Z" stroke="#000000" stroke-width="3.25417" stroke-linecap="round" stroke-linejoin="round" stroke-miterlimit="10"/><path d="M3319.27 1194.82C3319.27 1203.83 3311.97 1211.14 3302.96 1211.14 3293.95 1211.14 3286.64 1203.83 3286.64 1194.82 3286.64 1185.81 3293.95 1178.5 3302.96 1178.5 3311.97 1178.5 3319.27 1185.81 3319.27 1194.82Z" stroke="#000000" stroke-width="3.25417" stroke-linecap="round" stroke-linejoin="round" stroke-miterlimit="10"/><path d="M3282.33 982.842C3282.33 991.853 3275.03 999.158 3266.02 999.158 3257.01 999.158 3249.7 991.853 3249.7 982.842 3249.7 973.83 3257.01 966.525 3266.02 966.525 3275.03 966.525 3282.33 973.83 3282.33 982.842Z" stroke="#000000" stroke-width="3.25417" stroke-linecap="round" stroke-linejoin="round" stroke-miterlimit="10"/><path d="M3265.05 1053.61C3265.05 1062.62 3257.75 1069.93 3248.74 1069.93 3239.73 1069.93 3232.42 1062.62 3232.42 1053.61 3232.42 1044.6 3239.73 1037.29 3248.74 1037.29 3257.75 1037.29 3265.05 1044.6 3265.05 1053.61Z" stroke="#000000" stroke-width="3.25417" stroke-linecap="round" stroke-linejoin="round" stroke-miterlimit="10"/><path d="M3471.62 1159.07C3471.62 1168.08 3464.32 1175.39 3455.31 1175.39 3446.3 1175.39 3438.99 1168.08 3438.99 1159.07 3438.99 1150.06 3446.3 1142.75 3455.31 1142.75 3464.32 1142.75 3471.62 1150.06 3471.62 1159.07Z" stroke="#000000" stroke-width="3.25417" stroke-linecap="round" stroke-linejoin="round" stroke-miterlimit="10"/><path d="M3190.9 1307.11C3190.9 1316.12 3183.59 1323.43 3174.58 1323.43 3165.57 1323.43 3158.26 1316.12 3158.26 1307.11 3158.26 1298.1 3165.57 1290.8 3174.58 1290.8 3183.59 1290.8 3190.9 1298.1 3190.9 1307.11Z" stroke="#000000" stroke-width="3.25417" stroke-linecap="round" stroke-linejoin="round" stroke-miterlimit="10"/><path d="M1116.2 3275.61 5269.44-877.625" stroke="#000000" stroke-width="4.90417" stroke-linejoin="round" stroke-miterlimit="10" fill="none"/><text fill="#0000FF" font-family="Arial,Arial_MSFontService,sans-serif" font-weight="400" font-size="17" transform="matrix(4.58333 0 0 4.58333 3195.71 1323)">A</text><text fill="#0000FF" font-family="Arial,Arial_MSFontService,sans-serif" font-weight="400" font-size="17" transform="matrix(4.58333 0 0 4.58333 3384.72 610)">C</text><text fill="#0000FF" font-family="Arial,Arial_MSFontService,sans-serif" font-weight="400" font-size="17" transform="matrix(4.58333 0 0 4.58333 3041.71 1428)">D</text><text fill="#0000FF" font-family="Arial,Arial_MSFontService,sans-serif" font-weight="400" font-size="17" transform="matrix(4.58333 0 0 4.58333 3301.17 690)">F</text><text fill="#0000FF" font-family="Arial,Arial_MSFontService,sans-serif" font-weight="400" font-size="17" transform="matrix(4.58333 0 0 4.58333 3161.88 1499)">G</text><text fill="#0000FF" font-family="Arial,Arial_MSFontService,sans-serif" font-weight="400" font-size="17" transform="matrix(4.58333 0 0 4.58333 3403.1 640)">H</text><text fill="#0000FF" font-family="Arial,Arial_MSFontService,sans-serif" font-weight="400" font-size="17" transform="matrix(4.58333 0 0 4.58333 3262.67 931)">I</text><text fill="#0000FF" font-family="Arial,Arial_MSFontService,sans-serif" font-weight="400" font-size="17" transform="matrix(4.58333 0 0 4.58333 3068.11 1269)">K</text><text fill="#0000FF" font-family="Arial,Arial_MSFontService,sans-serif" font-weight="400" font-size="17" transform="matrix(4.58333 0 0 4.58333 3099.27 1258)">L</text><text fill="#0000FF" font-family="Arial,Arial_MSFontService,sans-serif" font-weight="400" font-size="17" transform="matrix(4.58333 0 0 4.58333 3598.03 686)">M</text><text fill="#0000FF" font-family="Arial,Arial_MSFontService,sans-serif" font-weight="400" font-size="17" transform="matrix(4.58333 0 0 4.58333 3443.62 1051)">N</text><text fill="#0000FF" font-family="Arial,Arial_MSFontService,sans-serif" font-weight="400" font-size="17" transform="matrix(4.58333 0 0 4.58333 3114.26 1250)">Q</text><text fill="#0000FF" font-family="Arial,Arial_MSFontService,sans-serif" font-weight="400" font-size="17" transform="matrix(4.58333 0 0 4.58333 3308.6 1195)">R</text><text fill="#0000FF" font-family="Arial,Arial_MSFontService,sans-serif" font-weight="400" font-size="17" transform="matrix(4.58333 0 0 4.58333 3271.24 983)">S</text><text fill="#0000FF" font-family="Arial,Arial_MSFontService,sans-serif" font-weight="400" font-size="17" transform="matrix(4.58333 0 0 4.58333 3253.55 1054)">T</text><text fill="#0000FF" font-family="Arial,Arial_MSFontService,sans-serif" font-weight="400" font-size="17" transform="matrix(4.58333 0 0 4.58333 3460.53 1159)">V</text><text fill="#0000FF" font-family="Arial,Arial_MSFontService,sans-serif" font-weight="400" font-size="17" transform="matrix(4.58333 0 0 4.58333 3179.8 1307)">Y</text><path d="M2500.6 506.771 3885 506.771 3885 1891.17 2500.6 1891.17Z" stroke="#7F7F7F" stroke-width="4.90417" stroke-linecap="round" stroke-linejoin="round" stroke-miterlimit="10" fill="none"/></g><g><text fill="#4D4D4D" font-family="Arial,Arial_MSFontService,sans-serif" font-weight="400" font-size="14" transform="matrix(4.58333 0 0 4.58333 2363.42 1851)">-</text><text fill="#4D4D4D" font-family="Arial,Arial_MSFontService,sans-serif" font-weight="400" font-size="14" transform="matrix(4.58333 0 0 4.58333 2386.34 1851)">0</text><text fill="#4D4D4D" font-family="Arial,Arial_MSFontService,sans-serif" font-weight="400" font-size="14" transform="matrix(4.58333 0 0 4.58333 2423 1851)">.</text><text fill="#4D4D4D" font-family="Arial,Arial_MSFontService,sans-serif" font-weight="400" font-size="14" transform="matrix(4.58333 0 0 4.58333 2441.34 1851)">3</text><text fill="#4D4D4D" font-family="Arial,Arial_MSFontService,sans-serif" font-weight="400" font-size="14" transform="matrix(4.58333 0 0 4.58333 2363.42 1641)">-</text><text fill="#4D4D4D" font-family="Arial,Arial_MSFontService,sans-serif" font-weight="400" font-size="14" transform="matrix(4.58333 0 0 4.58333 2386.34 1641)">0</text><text fill="#4D4D4D" font-family="Arial,Arial_MSFontService,sans-serif" font-weight="400" font-size="14" transform="matrix(4.58333 0 0 4.58333 2423 1641)">.</text><text fill="#4D4D4D" font-family="Arial,Arial_MSFontService,sans-serif" font-weight="400" font-size="14" transform="matrix(4.58333 0 0 4.58333 2441.34 1641)">2</text><text fill="#4D4D4D" font-family="Arial,Arial_MSFontService,sans-serif" font-weight="400" font-size="14" transform="matrix(4.58333 0 0 4.58333 2363.42 1432)">-</text><text fill="#4D4D4D" font-family="Arial,Arial_MSFontService,sans-serif" font-weight="400" font-size="14" transform="matrix(4.58333 0 0 4.58333 2386.34 1432)">0</text><text fill="#4D4D4D" font-family="Arial,Arial_MSFontService,sans-serif" font-weight="400" font-size="14" transform="matrix(4.58333 0 0 4.58333 2423 1432)">.</text><text fill="#4D4D4D" font-family="Arial,Arial_MSFontService,sans-serif" font-weight="400" font-size="14" transform="matrix(4.58333 0 0 4.58333 2441.34 1432)">1</text><text fill="#4D4D4D" font-family="Arial,Arial_MSFontService,sans-serif" font-weight="400" font-size="14" transform="matrix(4.58333 0 0 4.58333 2386.34 1222)">0</text><text fill="#4D4D4D" font-family="Arial,Arial_MSFontService,sans-serif" font-weight="400" font-size="14" transform="matrix(4.58333 0 0 4.58333 2423 1222)">.</text><text fill="#4D4D4D" font-family="Arial,Arial_MSFontService,sans-serif" font-weight="400" font-size="14" transform="matrix(4.58333 0 0 4.58333 2441.34 1222)">0</text><text fill="#4D4D4D" font-family="Arial,Arial_MSFontService,sans-serif" font-weight="400" font-size="14" transform="matrix(4.58333 0 0 4.58333 2386.34 1012)">0</text><text fill="#4D4D4D" font-family="Arial,Arial_MSFontService,sans-serif" font-weight="400" font-size="14" transform="matrix(4.58333 0 0 4.58333 2423 1012)">.</text><text fill="#4D4D4D" font-family="Arial,Arial_MSFontService,sans-serif" font-weight="400" font-size="14" transform="matrix(4.58333 0 0 4.58333 2441.34 1012)">1</text><text fill="#4D4D4D" font-family="Arial,Arial_MSFontService,sans-serif" font-weight="400" font-size="14" transform="matrix(4.58333 0 0 4.58333 2386.34 802)">0</text><text fill="#4D4D4D" font-family="Arial,Arial_MSFontService,sans-serif" font-weight="400" font-size="14" transform="matrix(4.58333 0 0 4.58333 2423 802)">.</text><text fill="#4D4D4D" font-family="Arial,Arial_MSFontService,sans-serif" font-weight="400" font-size="14" transform="matrix(4.58333 0 0 4.58333 2441.34 802)">2</text><text fill="#4D4D4D" font-family="Arial,Arial_MSFontService,sans-serif" font-weight="400" font-size="14" transform="matrix(4.58333 0 0 4.58333 2386.34 593)">0</text><text fill="#4D4D4D" font-family="Arial,Arial_MSFontService,sans-serif" font-weight="400" font-size="14" transform="matrix(4.58333 0 0 4.58333 2423 593)">.</text><text fill="#4D4D4D" font-family="Arial,Arial_MSFontService,sans-serif" font-weight="400" font-size="14" transform="matrix(4.58333 0 0 4.58333 2441.34 593)">3</text><path d="M2488.04 1828.24 2500.6 1828.24" stroke="#333333" stroke-width="4.90417" stroke-linejoin="round" stroke-miterlimit="10" fill="none"/><path d="M2488.04 1618.5 2500.6 1618.5" stroke="#333333" stroke-width="4.90417" stroke-linejoin="round" stroke-miterlimit="10" fill="none"/><path d="M2488.04 1408.73 2500.6 1408.73" stroke="#333333" stroke-width="4.90417" stroke-linejoin="round" stroke-miterlimit="10" fill="none"/><path d="M2488.04 1198.99 2500.6 1198.99" stroke="#333333" stroke-width="4.90417" stroke-linejoin="round" stroke-miterlimit="10" fill="none"/><path d="M2488.04 989.213 2500.6 989.213" stroke="#333333" stroke-width="4.90417" stroke-linejoin="round" stroke-miterlimit="10" fill="none"/><path d="M2488.04 779.479 2500.6 779.479" stroke="#333333" stroke-width="4.90417" stroke-linejoin="round" stroke-miterlimit="10" fill="none"/><path d="M2488.04 569.7 2500.6 569.7" stroke="#333333" stroke-width="4.90417" stroke-linejoin="round" stroke-miterlimit="10" fill="none"/><path d="M2563.53 1903.72 2563.53 1891.17" stroke="#333333" stroke-width="4.90417" stroke-linejoin="round" stroke-miterlimit="10" fill="none"/><path d="M2773.31 1903.72 2773.31 1891.17" stroke="#333333" stroke-width="4.90417" stroke-linejoin="round" stroke-miterlimit="10" fill="none"/><path d="M2983.04 1903.72 2983.04 1891.17" stroke="#333333" stroke-width="4.90417" stroke-linejoin="round" stroke-miterlimit="10" fill="none"/><path d="M3192.82 1903.72 3192.82 1891.17" stroke="#333333" stroke-width="4.90417" stroke-linejoin="round" stroke-miterlimit="10" fill="none"/><path d="M3402.6 1903.72 3402.6 1891.17" stroke="#333333" stroke-width="4.90417" stroke-linejoin="round" stroke-miterlimit="10" fill="none"/><path d="M3612.33 1903.72 3612.33 1891.17" stroke="#333333" stroke-width="4.90417" stroke-linejoin="round" stroke-miterlimit="10" fill="none"/><path d="M3822.11 1903.72 3822.11 1891.17" stroke="#333333" stroke-width="4.90417" stroke-linejoin="round" stroke-miterlimit="10" fill="none"/><text fill="#4D4D4D" font-family="Arial,Arial_MSFontService,sans-serif" font-weight="400" font-size="14" transform="matrix(4.58333 0 0 4.58333 2506.24 1960)">-</text><text fill="#4D4D4D" font-family="Arial,Arial_MSFontService,sans-serif" font-weight="400" font-size="14" transform="matrix(4.58333 0 0 4.58333 2529.15 1960)">0</text><text fill="#4D4D4D" font-family="Arial,Arial_MSFontService,sans-serif" font-weight="400" font-size="14" transform="matrix(4.58333 0 0 4.58333 2565.82 1960)">.</text><text fill="#4D4D4D" font-family="Arial,Arial_MSFontService,sans-serif" font-weight="400" font-size="14" transform="matrix(4.58333 0 0 4.58333 2584.15 1960)">3</text><text fill="#4D4D4D" font-family="Arial,Arial_MSFontService,sans-serif" font-weight="400" font-size="14" transform="matrix(4.58333 0 0 4.58333 2716.02 1960)">-</text><text fill="#4D4D4D" font-family="Arial,Arial_MSFontService,sans-serif" font-weight="400" font-size="14" transform="matrix(4.58333 0 0 4.58333 2738.93 1960)">0</text><text fill="#4D4D4D" font-family="Arial,Arial_MSFontService,sans-serif" font-weight="400" font-size="14" transform="matrix(4.58333 0 0 4.58333 2775.6 1960)">.</text><text fill="#4D4D4D" font-family="Arial,Arial_MSFontService,sans-serif" font-weight="400" font-size="14" transform="matrix(4.58333 0 0 4.58333 2793.93 1960)">2</text><text fill="#4D4D4D" font-family="Arial,Arial_MSFontService,sans-serif" font-weight="400" font-size="14" transform="matrix(4.58333 0 0 4.58333 2925.75 1960)">-</text><text fill="#4D4D4D" font-family="Arial,Arial_MSFontService,sans-serif" font-weight="400" font-size="14" transform="matrix(4.58333 0 0 4.58333 2948.67 1960)">0</text><text fill="#4D4D4D" font-family="Arial,Arial_MSFontService,sans-serif" font-weight="400" font-size="14" transform="matrix(4.58333 0 0 4.58333 2985.33 1960)">.</text><text fill="#4D4D4D" font-family="Arial,Arial_MSFontService,sans-serif" font-weight="400" font-size="14" transform="matrix(4.58333 0 0 4.58333 3003.67 1960)">1</text><text fill="#4D4D4D" font-family="Arial,Arial_MSFontService,sans-serif" font-weight="400" font-size="14" transform="matrix(4.58333 0 0 4.58333 3146.99 1960)">0</text><text fill="#4D4D4D" font-family="Arial,Arial_MSFontService,sans-serif" font-weight="400" font-size="14" transform="matrix(4.58333 0 0 4.58333 3183.65 1960)">.</text><text fill="#4D4D4D" font-family="Arial,Arial_MSFontService,sans-serif" font-weight="400" font-size="14" transform="matrix(4.58333 0 0 4.58333 3201.99 1960)">0</text><text fill="#4D4D4D" font-family="Arial,Arial_MSFontService,sans-serif" font-weight="400" font-size="14" transform="matrix(4.58333 0 0 4.58333 3356.77 1960)">0</text><text fill="#4D4D4D" font-family="Arial,Arial_MSFontService,sans-serif" font-weight="400" font-size="14" transform="matrix(4.58333 0 0 4.58333 3393.43 1960)">.</text><text fill="#4D4D4D" font-family="Arial,Arial_MSFontService,sans-serif" font-weight="400" font-size="14" transform="matrix(4.58333 0 0 4.58333 3411.77 1960)">1</text><text fill="#4D4D4D" font-family="Arial,Arial_MSFontService,sans-serif" font-weight="400" font-size="14" transform="matrix(4.58333 0 0 4.58333 3566.5 1960)">0</text><text fill="#4D4D4D" font-family="Arial,Arial_MSFontService,sans-serif" font-weight="400" font-size="14" transform="matrix(4.58333 0 0 4.58333 3603.17 1960)">.</text><text fill="#4D4D4D" font-family="Arial,Arial_MSFontService,sans-serif" font-weight="400" font-size="14" transform="matrix(4.58333 0 0 4.58333 3621.5 1960)">2</text><text fill="#4D4D4D" font-family="Arial,Arial_MSFontService,sans-serif" font-weight="400" font-size="14" transform="matrix(4.58333 0 0 4.58333 3776.28 1960)">0</text><text fill="#4D4D4D" font-family="Arial,Arial_MSFontService,sans-serif" font-weight="400" font-size="14" transform="matrix(4.58333 0 0 4.58333 3812.95 1960)">.</text><text fill="#4D4D4D" font-family="Arial,Arial_MSFontService,sans-serif" font-weight="400" font-size="14" transform="matrix(4.58333 0 0 4.58333 3831.28 1960)">3</text><text font-family="Arial,Arial_MSFontService,sans-serif" font-weight="700" font-size="16" transform="matrix(4.58333 0 0 4.58333 2993.45 2038)">Human flux</text><text font-family="Arial,Arial_MSFontService,sans-serif" font-weight="700" font-size="16" transform="matrix(2.80648e-16 -4.58333 4.58333 2.80648e-16 2339.5 1387)">Chimp flux</text></g></g></g></g><text font-family="Arial,Arial_MSFontService,sans-serif" font-weight="700" font-size="92" transform="matrix(1 0 0 1 476.454 571)">A</text><text font-family="Arial,Arial_MSFontService,sans-serif" font-weight="700" font-size="92" transform="matrix(1 0 0 1 2273.55 571)">B</text></g></svg>